<mxfile host="Electron" agent="Mozilla/5.0 (Macintosh; Intel Mac OS X 10_15_7) AppleWebKit/537.36 (KHTML, like Gecko) draw.io/26.0.3 Chrome/130.0.6723.137 Electron/33.2.1 Safari/537.36" version="26.0.3">
  <diagram id="C5RBs43oDa-KdzZeNtuy" name="Page-1">
    <mxGraphModel dx="3694" dy="2662" grid="0" gridSize="10" guides="1" tooltips="1" connect="1" arrows="1" fold="1" page="1" pageScale="1" pageWidth="827" pageHeight="1169" background="none" math="0" shadow="0">
      <root>
        <mxCell id="WIyWlLk6GJQsqaUBKTNV-0" />
        <mxCell id="WIyWlLk6GJQsqaUBKTNV-1" parent="WIyWlLk6GJQsqaUBKTNV-0" />
        <mxCell id="tWL3oWKNITc_VHTO6xsC-0" value="Reservation" style="swimlane;fontStyle=1;align=center;verticalAlign=top;childLayout=stackLayout;horizontal=1;startSize=26;horizontalStack=0;resizeParent=1;resizeParentMax=0;resizeLast=0;collapsible=1;marginBottom=0;whiteSpace=wrap;html=1;" vertex="1" parent="WIyWlLk6GJQsqaUBKTNV-1">
          <mxGeometry x="280" y="-224" width="180" height="164" as="geometry" />
        </mxCell>
        <mxCell id="tWL3oWKNITc_VHTO6xsC-1" value="+ idReservation: Long" style="text;strokeColor=none;fillColor=none;align=left;verticalAlign=top;spacingLeft=4;spacingRight=4;overflow=hidden;rotatable=0;points=[[0,0.5],[1,0.5]];portConstraint=eastwest;whiteSpace=wrap;html=1;" vertex="1" parent="tWL3oWKNITc_VHTO6xsC-0">
          <mxGeometry y="26" width="180" height="26" as="geometry" />
        </mxCell>
        <mxCell id="tWL3oWKNITc_VHTO6xsC-32" value="+ customer : Customer" style="text;strokeColor=none;fillColor=none;align=left;verticalAlign=top;spacingLeft=4;spacingRight=4;overflow=hidden;rotatable=0;points=[[0,0.5],[1,0.5]];portConstraint=eastwest;whiteSpace=wrap;html=1;" vertex="1" parent="tWL3oWKNITc_VHTO6xsC-0">
          <mxGeometry y="52" width="180" height="26" as="geometry" />
        </mxCell>
        <mxCell id="tWL3oWKNITc_VHTO6xsC-31" value="+ time :&amp;nbsp; LocalDateTime" style="text;strokeColor=none;fillColor=none;align=left;verticalAlign=top;spacingLeft=4;spacingRight=4;overflow=hidden;rotatable=0;points=[[0,0.5],[1,0.5]];portConstraint=eastwest;whiteSpace=wrap;html=1;" vertex="1" parent="tWL3oWKNITc_VHTO6xsC-0">
          <mxGeometry y="78" width="180" height="26" as="geometry" />
        </mxCell>
        <mxCell id="tWL3oWKNITc_VHTO6xsC-30" value="+ people : Integer" style="text;strokeColor=none;fillColor=none;align=left;verticalAlign=top;spacingLeft=4;spacingRight=4;overflow=hidden;rotatable=0;points=[[0,0.5],[1,0.5]];portConstraint=eastwest;whiteSpace=wrap;html=1;" vertex="1" parent="tWL3oWKNITc_VHTO6xsC-0">
          <mxGeometry y="104" width="180" height="26" as="geometry" />
        </mxCell>
        <mxCell id="tWL3oWKNITc_VHTO6xsC-29" value="+ status: String" style="text;strokeColor=none;fillColor=none;align=left;verticalAlign=top;spacingLeft=4;spacingRight=4;overflow=hidden;rotatable=0;points=[[0,0.5],[1,0.5]];portConstraint=eastwest;whiteSpace=wrap;html=1;" vertex="1" parent="tWL3oWKNITc_VHTO6xsC-0">
          <mxGeometry y="130" width="180" height="26" as="geometry" />
        </mxCell>
        <mxCell id="tWL3oWKNITc_VHTO6xsC-2" value="" style="line;strokeWidth=1;fillColor=none;align=left;verticalAlign=middle;spacingTop=-1;spacingLeft=3;spacingRight=3;rotatable=0;labelPosition=right;points=[];portConstraint=eastwest;strokeColor=inherit;" vertex="1" parent="tWL3oWKNITc_VHTO6xsC-0">
          <mxGeometry y="156" width="180" height="8" as="geometry" />
        </mxCell>
        <mxCell id="tWL3oWKNITc_VHTO6xsC-4" value="Menu" style="swimlane;fontStyle=1;align=center;verticalAlign=top;childLayout=stackLayout;horizontal=1;startSize=26;horizontalStack=0;resizeParent=1;resizeParentMax=0;resizeLast=0;collapsible=1;marginBottom=0;whiteSpace=wrap;html=1;" vertex="1" parent="WIyWlLk6GJQsqaUBKTNV-1">
          <mxGeometry x="1206" y="-226" width="160" height="112" as="geometry" />
        </mxCell>
        <mxCell id="tWL3oWKNITc_VHTO6xsC-5" value="+ idMenu: Long" style="text;strokeColor=none;fillColor=none;align=left;verticalAlign=top;spacingLeft=4;spacingRight=4;overflow=hidden;rotatable=0;points=[[0,0.5],[1,0.5]];portConstraint=eastwest;whiteSpace=wrap;html=1;" vertex="1" parent="tWL3oWKNITc_VHTO6xsC-4">
          <mxGeometry y="26" width="160" height="26" as="geometry" />
        </mxCell>
        <mxCell id="tWL3oWKNITc_VHTO6xsC-34" value="+ name: String" style="text;strokeColor=none;fillColor=none;align=left;verticalAlign=top;spacingLeft=4;spacingRight=4;overflow=hidden;rotatable=0;points=[[0,0.5],[1,0.5]];portConstraint=eastwest;whiteSpace=wrap;html=1;" vertex="1" parent="tWL3oWKNITc_VHTO6xsC-4">
          <mxGeometry y="52" width="160" height="26" as="geometry" />
        </mxCell>
        <mxCell id="tWL3oWKNITc_VHTO6xsC-33" value="+ dishes: List&amp;lt;Dish&amp;gt;" style="text;strokeColor=none;fillColor=none;align=left;verticalAlign=top;spacingLeft=4;spacingRight=4;overflow=hidden;rotatable=0;points=[[0,0.5],[1,0.5]];portConstraint=eastwest;whiteSpace=wrap;html=1;" vertex="1" parent="tWL3oWKNITc_VHTO6xsC-4">
          <mxGeometry y="78" width="160" height="26" as="geometry" />
        </mxCell>
        <mxCell id="tWL3oWKNITc_VHTO6xsC-6" value="" style="line;strokeWidth=1;fillColor=none;align=left;verticalAlign=middle;spacingTop=-1;spacingLeft=3;spacingRight=3;rotatable=0;labelPosition=right;points=[];portConstraint=eastwest;strokeColor=inherit;" vertex="1" parent="tWL3oWKNITc_VHTO6xsC-4">
          <mxGeometry y="104" width="160" height="8" as="geometry" />
        </mxCell>
        <mxCell id="tWL3oWKNITc_VHTO6xsC-8" value="Customer" style="swimlane;fontStyle=1;align=center;verticalAlign=top;childLayout=stackLayout;horizontal=1;startSize=26;horizontalStack=0;resizeParent=1;resizeParentMax=0;resizeLast=0;collapsible=1;marginBottom=0;whiteSpace=wrap;html=1;" vertex="1" parent="WIyWlLk6GJQsqaUBKTNV-1">
          <mxGeometry x="-141.99999999999997" y="-224" width="160" height="190" as="geometry" />
        </mxCell>
        <mxCell id="tWL3oWKNITc_VHTO6xsC-9" value="+ idCustomer: Long" style="text;strokeColor=none;fillColor=none;align=left;verticalAlign=top;spacingLeft=4;spacingRight=4;overflow=hidden;rotatable=0;points=[[0,0.5],[1,0.5]];portConstraint=eastwest;whiteSpace=wrap;html=1;" vertex="1" parent="tWL3oWKNITc_VHTO6xsC-8">
          <mxGeometry y="26" width="160" height="26" as="geometry" />
        </mxCell>
        <mxCell id="tWL3oWKNITc_VHTO6xsC-134" value="+ isFrecuent : Boolean" style="text;strokeColor=none;fillColor=none;align=left;verticalAlign=top;spacingLeft=4;spacingRight=4;overflow=hidden;rotatable=0;points=[[0,0.5],[1,0.5]];portConstraint=eastwest;whiteSpace=wrap;html=1;" vertex="1" parent="tWL3oWKNITc_VHTO6xsC-8">
          <mxGeometry y="52" width="160" height="26" as="geometry" />
        </mxCell>
        <mxCell id="tWL3oWKNITc_VHTO6xsC-26" value="+ firstName : String" style="text;strokeColor=none;fillColor=none;align=left;verticalAlign=top;spacingLeft=4;spacingRight=4;overflow=hidden;rotatable=0;points=[[0,0.5],[1,0.5]];portConstraint=eastwest;whiteSpace=wrap;html=1;" vertex="1" parent="tWL3oWKNITc_VHTO6xsC-8">
          <mxGeometry y="78" width="160" height="26" as="geometry" />
        </mxCell>
        <mxCell id="tWL3oWKNITc_VHTO6xsC-25" value="+ lastName : String" style="text;strokeColor=none;fillColor=none;align=left;verticalAlign=top;spacingLeft=4;spacingRight=4;overflow=hidden;rotatable=0;points=[[0,0.5],[1,0.5]];portConstraint=eastwest;whiteSpace=wrap;html=1;" vertex="1" parent="tWL3oWKNITc_VHTO6xsC-8">
          <mxGeometry y="104" width="160" height="26" as="geometry" />
        </mxCell>
        <mxCell id="tWL3oWKNITc_VHTO6xsC-24" value="+ email : String" style="text;strokeColor=none;fillColor=none;align=left;verticalAlign=top;spacingLeft=4;spacingRight=4;overflow=hidden;rotatable=0;points=[[0,0.5],[1,0.5]];portConstraint=eastwest;whiteSpace=wrap;html=1;" vertex="1" parent="tWL3oWKNITc_VHTO6xsC-8">
          <mxGeometry y="130" width="160" height="26" as="geometry" />
        </mxCell>
        <mxCell id="tWL3oWKNITc_VHTO6xsC-27" value="+ phone : String" style="text;strokeColor=none;fillColor=none;align=left;verticalAlign=top;spacingLeft=4;spacingRight=4;overflow=hidden;rotatable=0;points=[[0,0.5],[1,0.5]];portConstraint=eastwest;whiteSpace=wrap;html=1;" vertex="1" parent="tWL3oWKNITc_VHTO6xsC-8">
          <mxGeometry y="156" width="160" height="26" as="geometry" />
        </mxCell>
        <mxCell id="tWL3oWKNITc_VHTO6xsC-10" value="" style="line;strokeWidth=1;fillColor=none;align=left;verticalAlign=middle;spacingTop=-1;spacingLeft=3;spacingRight=3;rotatable=0;labelPosition=right;points=[];portConstraint=eastwest;strokeColor=inherit;" vertex="1" parent="tWL3oWKNITc_VHTO6xsC-8">
          <mxGeometry y="182" width="160" height="8" as="geometry" />
        </mxCell>
        <mxCell id="tWL3oWKNITc_VHTO6xsC-12" value="Dish" style="swimlane;fontStyle=1;align=center;verticalAlign=top;childLayout=stackLayout;horizontal=1;startSize=26;horizontalStack=0;resizeParent=1;resizeParentMax=0;resizeLast=0;collapsible=1;marginBottom=0;whiteSpace=wrap;html=1;" vertex="1" parent="WIyWlLk6GJQsqaUBKTNV-1">
          <mxGeometry x="954" y="-450" width="160" height="190" as="geometry" />
        </mxCell>
        <mxCell id="tWL3oWKNITc_VHTO6xsC-13" value="+ idDish: Long" style="text;strokeColor=none;fillColor=none;align=left;verticalAlign=top;spacingLeft=4;spacingRight=4;overflow=hidden;rotatable=0;points=[[0,0.5],[1,0.5]];portConstraint=eastwest;whiteSpace=wrap;html=1;" vertex="1" parent="tWL3oWKNITc_VHTO6xsC-12">
          <mxGeometry y="26" width="160" height="26" as="geometry" />
        </mxCell>
        <mxCell id="tWL3oWKNITc_VHTO6xsC-135" value="+ isPopular : Boolean" style="text;strokeColor=none;fillColor=none;align=left;verticalAlign=top;spacingLeft=4;spacingRight=4;overflow=hidden;rotatable=0;points=[[0,0.5],[1,0.5]];portConstraint=eastwest;whiteSpace=wrap;html=1;" vertex="1" parent="tWL3oWKNITc_VHTO6xsC-12">
          <mxGeometry y="52" width="160" height="26" as="geometry" />
        </mxCell>
        <mxCell id="tWL3oWKNITc_VHTO6xsC-137" value="+ isAvailable: Boolean" style="text;strokeColor=none;fillColor=none;align=left;verticalAlign=top;spacingLeft=4;spacingRight=4;overflow=hidden;rotatable=0;points=[[0,0.5],[1,0.5]];portConstraint=eastwest;whiteSpace=wrap;html=1;" vertex="1" parent="tWL3oWKNITc_VHTO6xsC-12">
          <mxGeometry y="78" width="160" height="26" as="geometry" />
        </mxCell>
        <mxCell id="tWL3oWKNITc_VHTO6xsC-37" value="+ name : String" style="text;strokeColor=none;fillColor=none;align=left;verticalAlign=top;spacingLeft=4;spacingRight=4;overflow=hidden;rotatable=0;points=[[0,0.5],[1,0.5]];portConstraint=eastwest;whiteSpace=wrap;html=1;" vertex="1" parent="tWL3oWKNITc_VHTO6xsC-12">
          <mxGeometry y="104" width="160" height="26" as="geometry" />
        </mxCell>
        <mxCell id="tWL3oWKNITc_VHTO6xsC-36" value="+ price : Double" style="text;strokeColor=none;fillColor=none;align=left;verticalAlign=top;spacingLeft=4;spacingRight=4;overflow=hidden;rotatable=0;points=[[0,0.5],[1,0.5]];portConstraint=eastwest;whiteSpace=wrap;html=1;" vertex="1" parent="tWL3oWKNITc_VHTO6xsC-12">
          <mxGeometry y="130" width="160" height="26" as="geometry" />
        </mxCell>
        <mxCell id="tWL3oWKNITc_VHTO6xsC-35" value="+ description&amp;nbsp;: String" style="text;strokeColor=none;fillColor=none;align=left;verticalAlign=top;spacingLeft=4;spacingRight=4;overflow=hidden;rotatable=0;points=[[0,0.5],[1,0.5]];portConstraint=eastwest;whiteSpace=wrap;html=1;" vertex="1" parent="tWL3oWKNITc_VHTO6xsC-12">
          <mxGeometry y="156" width="160" height="26" as="geometry" />
        </mxCell>
        <mxCell id="tWL3oWKNITc_VHTO6xsC-14" value="" style="line;strokeWidth=1;fillColor=none;align=left;verticalAlign=middle;spacingTop=-1;spacingLeft=3;spacingRight=3;rotatable=0;labelPosition=right;points=[];portConstraint=eastwest;strokeColor=inherit;" vertex="1" parent="tWL3oWKNITc_VHTO6xsC-12">
          <mxGeometry y="182" width="160" height="8" as="geometry" />
        </mxCell>
        <mxCell id="tWL3oWKNITc_VHTO6xsC-16" value="Order" style="swimlane;fontStyle=1;align=center;verticalAlign=top;childLayout=stackLayout;horizontal=1;startSize=26;horizontalStack=0;resizeParent=1;resizeParentMax=0;resizeLast=0;collapsible=1;marginBottom=0;whiteSpace=wrap;html=1;" vertex="1" parent="WIyWlLk6GJQsqaUBKTNV-1">
          <mxGeometry x="715" y="-224" width="160" height="138" as="geometry" />
        </mxCell>
        <mxCell id="tWL3oWKNITc_VHTO6xsC-17" value="+ idOrder: Long" style="text;strokeColor=none;fillColor=none;align=left;verticalAlign=top;spacingLeft=4;spacingRight=4;overflow=hidden;rotatable=0;points=[[0,0.5],[1,0.5]];portConstraint=eastwest;whiteSpace=wrap;html=1;" vertex="1" parent="tWL3oWKNITc_VHTO6xsC-16">
          <mxGeometry y="26" width="160" height="26" as="geometry" />
        </mxCell>
        <mxCell id="tWL3oWKNITc_VHTO6xsC-40" value="+ reservation : Reservation" style="text;strokeColor=none;fillColor=none;align=left;verticalAlign=top;spacingLeft=4;spacingRight=4;overflow=hidden;rotatable=0;points=[[0,0.5],[1,0.5]];portConstraint=eastwest;whiteSpace=wrap;html=1;" vertex="1" parent="tWL3oWKNITc_VHTO6xsC-16">
          <mxGeometry y="52" width="160" height="26" as="geometry" />
        </mxCell>
        <mxCell id="tWL3oWKNITc_VHTO6xsC-39" value="+ dishes : List&amp;lt;Dish&amp;gt;" style="text;strokeColor=none;fillColor=none;align=left;verticalAlign=top;spacingLeft=4;spacingRight=4;overflow=hidden;rotatable=0;points=[[0,0.5],[1,0.5]];portConstraint=eastwest;whiteSpace=wrap;html=1;" vertex="1" parent="tWL3oWKNITc_VHTO6xsC-16">
          <mxGeometry y="78" width="160" height="26" as="geometry" />
        </mxCell>
        <mxCell id="tWL3oWKNITc_VHTO6xsC-38" value="+ status: String" style="text;strokeColor=none;fillColor=none;align=left;verticalAlign=top;spacingLeft=4;spacingRight=4;overflow=hidden;rotatable=0;points=[[0,0.5],[1,0.5]];portConstraint=eastwest;whiteSpace=wrap;html=1;" vertex="1" parent="tWL3oWKNITc_VHTO6xsC-16">
          <mxGeometry y="104" width="160" height="26" as="geometry" />
        </mxCell>
        <mxCell id="tWL3oWKNITc_VHTO6xsC-18" value="" style="line;strokeWidth=1;fillColor=none;align=left;verticalAlign=middle;spacingTop=-1;spacingLeft=3;spacingRight=3;rotatable=0;labelPosition=right;points=[];portConstraint=eastwest;strokeColor=inherit;" vertex="1" parent="tWL3oWKNITc_VHTO6xsC-16">
          <mxGeometry y="130" width="160" height="8" as="geometry" />
        </mxCell>
        <mxCell id="tWL3oWKNITc_VHTO6xsC-20" style="edgeStyle=orthogonalEdgeStyle;rounded=0;orthogonalLoop=1;jettySize=auto;html=1;entryX=0;entryY=0.5;entryDx=0;entryDy=0;" edge="1" parent="WIyWlLk6GJQsqaUBKTNV-1" source="tWL3oWKNITc_VHTO6xsC-9" target="tWL3oWKNITc_VHTO6xsC-1">
          <mxGeometry relative="1" as="geometry" />
        </mxCell>
        <mxCell id="tWL3oWKNITc_VHTO6xsC-41" value="&lt;p style=&quot;margin:0px;margin-top:4px;text-align:center;&quot;&gt;&lt;i&gt;&amp;lt;&amp;lt;Interface&amp;gt;&amp;gt; extends JpaRepository&lt;/i&gt;&lt;br&gt;&lt;b&gt;CustomerRepository&lt;/b&gt;&lt;/p&gt;&lt;hr size=&quot;1&quot; style=&quot;border-style:solid;&quot;&gt;&lt;p style=&quot;margin:0px;margin-left:4px;&quot;&gt;&lt;br&gt;&lt;/p&gt;" style="verticalAlign=top;align=left;overflow=fill;html=1;whiteSpace=wrap;" vertex="1" parent="WIyWlLk6GJQsqaUBKTNV-1">
          <mxGeometry x="-186.99999999999997" y="217" width="213" height="38" as="geometry" />
        </mxCell>
        <mxCell id="tWL3oWKNITc_VHTO6xsC-42" value="&lt;p style=&quot;margin:0px;margin-top:4px;text-align:center;&quot;&gt;&lt;i&gt;&amp;lt;&amp;lt;Interface&amp;gt;&amp;gt;&amp;nbsp;&lt;/i&gt;&lt;i&gt;extends JpaRepository&lt;/i&gt;&lt;br&gt;&lt;b&gt;OrderRepository&lt;/b&gt;&lt;/p&gt;&lt;p style=&quot;margin:0px;margin-left:4px;&quot;&gt;&lt;br&gt;&lt;/p&gt;" style="verticalAlign=top;align=left;overflow=fill;html=1;whiteSpace=wrap;" vertex="1" parent="WIyWlLk6GJQsqaUBKTNV-1">
          <mxGeometry x="873" y="219" width="209" height="36" as="geometry" />
        </mxCell>
        <mxCell id="tWL3oWKNITc_VHTO6xsC-43" value="&lt;p style=&quot;margin:0px;margin-top:4px;text-align:center;&quot;&gt;&lt;i&gt;&amp;lt;&amp;lt;Interface&amp;gt;&amp;gt;&amp;nbsp;&lt;/i&gt;&lt;i&gt;extends JpaRepository&lt;/i&gt;&lt;br&gt;&lt;b&gt;MenuRepository&lt;/b&gt;&lt;/p&gt;" style="verticalAlign=top;align=left;overflow=fill;html=1;whiteSpace=wrap;" vertex="1" parent="WIyWlLk6GJQsqaUBKTNV-1">
          <mxGeometry x="1316" y="217" width="214" height="38" as="geometry" />
        </mxCell>
        <mxCell id="tWL3oWKNITc_VHTO6xsC-44" value="&lt;p style=&quot;margin:0px;margin-top:4px;text-align:center;&quot;&gt;&lt;i&gt;&amp;lt;&amp;lt;Interface&amp;gt;&amp;gt;&amp;nbsp;&lt;/i&gt;&lt;i style=&quot;background-color: transparent; color: light-dark(rgb(0, 0, 0), rgb(255, 255, 255));&quot;&gt;extends JpaRepository&lt;/i&gt;&lt;br&gt;&lt;/p&gt;&lt;p style=&quot;margin:0px;margin-top:4px;text-align:center;&quot;&gt;&lt;b&gt;ReservarionRepository&lt;/b&gt;&lt;/p&gt;" style="verticalAlign=top;align=left;overflow=fill;html=1;whiteSpace=wrap;" vertex="1" parent="WIyWlLk6GJQsqaUBKTNV-1">
          <mxGeometry x="237.00000000000003" y="219" width="214" height="45" as="geometry" />
        </mxCell>
        <mxCell id="tWL3oWKNITc_VHTO6xsC-151" style="edgeStyle=orthogonalEdgeStyle;rounded=0;orthogonalLoop=1;jettySize=auto;html=1;entryX=0.5;entryY=0;entryDx=0;entryDy=0;" edge="1" parent="WIyWlLk6GJQsqaUBKTNV-1" source="tWL3oWKNITc_VHTO6xsC-46" target="tWL3oWKNITc_VHTO6xsC-41">
          <mxGeometry relative="1" as="geometry" />
        </mxCell>
        <mxCell id="tWL3oWKNITc_VHTO6xsC-152" style="edgeStyle=orthogonalEdgeStyle;rounded=0;orthogonalLoop=1;jettySize=auto;html=1;" edge="1" parent="WIyWlLk6GJQsqaUBKTNV-1" source="tWL3oWKNITc_VHTO6xsC-46">
          <mxGeometry relative="1" as="geometry">
            <mxPoint x="336" y="221" as="targetPoint" />
          </mxGeometry>
        </mxCell>
        <mxCell id="tWL3oWKNITc_VHTO6xsC-182" style="edgeStyle=orthogonalEdgeStyle;rounded=0;orthogonalLoop=1;jettySize=auto;html=1;entryX=0;entryY=0.5;entryDx=0;entryDy=0;" edge="1" parent="WIyWlLk6GJQsqaUBKTNV-1" source="tWL3oWKNITc_VHTO6xsC-46" target="tWL3oWKNITc_VHTO6xsC-42">
          <mxGeometry relative="1" as="geometry" />
        </mxCell>
        <mxCell id="tWL3oWKNITc_VHTO6xsC-46" value="&lt;p style=&quot;margin:0px;margin-top:4px;text-align:center;&quot;&gt;&lt;i&gt;&amp;lt;&amp;lt;Interface&amp;gt;&amp;gt;&lt;/i&gt;&lt;br&gt;&lt;b&gt;JpaRepository&lt;/b&gt;&lt;/p&gt;&lt;hr size=&quot;1&quot; style=&quot;border-style:solid;&quot;&gt;&lt;p style=&quot;margin:0px;margin-left:4px;&quot;&gt;&lt;br&gt;&lt;/p&gt;&lt;hr size=&quot;1&quot; style=&quot;border-style:solid;&quot;&gt;&lt;p style=&quot;margin:0px;margin-left:4px;&quot;&gt;&lt;br&gt;&lt;/p&gt;" style="verticalAlign=top;align=left;overflow=fill;html=1;whiteSpace=wrap;" vertex="1" parent="WIyWlLk6GJQsqaUBKTNV-1">
          <mxGeometry x="507" y="48" width="190" height="41" as="geometry" />
        </mxCell>
        <mxCell id="tWL3oWKNITc_VHTO6xsC-163" style="edgeStyle=orthogonalEdgeStyle;rounded=0;orthogonalLoop=1;jettySize=auto;html=1;" edge="1" parent="WIyWlLk6GJQsqaUBKTNV-1">
          <mxGeometry relative="1" as="geometry">
            <mxPoint x="-541.5" y="1041" as="targetPoint" />
            <mxPoint x="-541.4523809523812" y="1093" as="sourcePoint" />
          </mxGeometry>
        </mxCell>
        <mxCell id="tWL3oWKNITc_VHTO6xsC-59" value="CustomerProxy implements ICustomerService&lt;div&gt;&lt;br&gt;&lt;/div&gt;" style="swimlane;fontStyle=1;align=center;verticalAlign=top;childLayout=stackLayout;horizontal=1;startSize=26;horizontalStack=0;resizeParent=1;resizeParentMax=0;resizeLast=0;collapsible=1;marginBottom=0;whiteSpace=wrap;html=1;" vertex="1" parent="WIyWlLk6GJQsqaUBKTNV-1">
          <mxGeometry x="-692" y="1095" width="316" height="101" as="geometry" />
        </mxCell>
        <mxCell id="tWL3oWKNITc_VHTO6xsC-60" value="+ customerCache : List&amp;lt;Customer&amp;gt;" style="text;strokeColor=none;fillColor=none;align=left;verticalAlign=top;spacingLeft=4;spacingRight=4;overflow=hidden;rotatable=0;points=[[0,0.5],[1,0.5]];portConstraint=eastwest;whiteSpace=wrap;html=1;" vertex="1" parent="tWL3oWKNITc_VHTO6xsC-59">
          <mxGeometry y="26" width="316" height="26" as="geometry" />
        </mxCell>
        <mxCell id="tWL3oWKNITc_VHTO6xsC-61" value="" style="line;strokeWidth=1;fillColor=none;align=left;verticalAlign=middle;spacingTop=-1;spacingLeft=3;spacingRight=3;rotatable=0;labelPosition=right;points=[];portConstraint=eastwest;strokeColor=inherit;" vertex="1" parent="tWL3oWKNITc_VHTO6xsC-59">
          <mxGeometry y="52" width="316" height="8" as="geometry" />
        </mxCell>
        <mxCell id="tWL3oWKNITc_VHTO6xsC-62" value="&lt;p style=&quot;margin: 0px 0px 0px 4px;&quot;&gt;+ getCustomer(Long) : Customer&lt;/p&gt;&lt;p style=&quot;margin: 0px 0px 0px 4px;&quot;&gt;+ getAllCustomer() : List&amp;lt;Customer&amp;gt;&lt;/p&gt;" style="text;strokeColor=none;fillColor=none;align=left;verticalAlign=top;spacingLeft=4;spacingRight=4;overflow=hidden;rotatable=0;points=[[0,0.5],[1,0.5]];portConstraint=eastwest;whiteSpace=wrap;html=1;" vertex="1" parent="tWL3oWKNITc_VHTO6xsC-59">
          <mxGeometry y="60" width="316" height="41" as="geometry" />
        </mxCell>
        <mxCell id="tWL3oWKNITc_VHTO6xsC-212" style="edgeStyle=orthogonalEdgeStyle;rounded=0;orthogonalLoop=1;jettySize=auto;html=1;" edge="1" parent="WIyWlLk6GJQsqaUBKTNV-1" source="tWL3oWKNITc_VHTO6xsC-63">
          <mxGeometry relative="1" as="geometry">
            <mxPoint x="155" y="1072.8703703703702" as="targetPoint" />
          </mxGeometry>
        </mxCell>
        <mxCell id="tWL3oWKNITc_VHTO6xsC-63" value="ReservationProxy implements&amp;nbsp;&lt;b style=&quot;color: light-dark(rgb(0, 0, 0), rgb(255, 255, 255)); background-color: transparent;&quot;&gt;IReservationService&lt;/b&gt;" style="swimlane;fontStyle=1;align=center;verticalAlign=top;childLayout=stackLayout;horizontal=1;startSize=26;horizontalStack=0;resizeParent=1;resizeParentMax=0;resizeLast=0;collapsible=1;marginBottom=0;whiteSpace=wrap;html=1;" vertex="1" parent="WIyWlLk6GJQsqaUBKTNV-1">
          <mxGeometry x="-11" y="1142.5" width="332" height="112" as="geometry" />
        </mxCell>
        <mxCell id="tWL3oWKNITc_VHTO6xsC-64" value="+ reservationCache: List&amp;lt;Reservation&amp;gt;" style="text;strokeColor=none;fillColor=none;align=left;verticalAlign=top;spacingLeft=4;spacingRight=4;overflow=hidden;rotatable=0;points=[[0,0.5],[1,0.5]];portConstraint=eastwest;whiteSpace=wrap;html=1;" vertex="1" parent="tWL3oWKNITc_VHTO6xsC-63">
          <mxGeometry y="26" width="332" height="26" as="geometry" />
        </mxCell>
        <mxCell id="tWL3oWKNITc_VHTO6xsC-65" value="" style="line;strokeWidth=1;fillColor=none;align=left;verticalAlign=middle;spacingTop=-1;spacingLeft=3;spacingRight=3;rotatable=0;labelPosition=right;points=[];portConstraint=eastwest;strokeColor=inherit;" vertex="1" parent="tWL3oWKNITc_VHTO6xsC-63">
          <mxGeometry y="52" width="332" height="8" as="geometry" />
        </mxCell>
        <mxCell id="tWL3oWKNITc_VHTO6xsC-66" value="+ getReservation(Long) : Reservation" style="text;strokeColor=none;fillColor=none;align=left;verticalAlign=top;spacingLeft=4;spacingRight=4;overflow=hidden;rotatable=0;points=[[0,0.5],[1,0.5]];portConstraint=eastwest;whiteSpace=wrap;html=1;" vertex="1" parent="tWL3oWKNITc_VHTO6xsC-63">
          <mxGeometry y="60" width="332" height="26" as="geometry" />
        </mxCell>
        <mxCell id="tWL3oWKNITc_VHTO6xsC-177" value="+ getAllReservation() : List&amp;lt;Reservation&amp;gt;" style="text;strokeColor=none;fillColor=none;align=left;verticalAlign=top;spacingLeft=4;spacingRight=4;overflow=hidden;rotatable=0;points=[[0,0.5],[1,0.5]];portConstraint=eastwest;whiteSpace=wrap;html=1;" vertex="1" parent="tWL3oWKNITc_VHTO6xsC-63">
          <mxGeometry y="86" width="332" height="26" as="geometry" />
        </mxCell>
        <mxCell id="tWL3oWKNITc_VHTO6xsC-193" style="edgeStyle=orthogonalEdgeStyle;rounded=0;orthogonalLoop=1;jettySize=auto;html=1;" edge="1" parent="WIyWlLk6GJQsqaUBKTNV-1" source="tWL3oWKNITc_VHTO6xsC-67">
          <mxGeometry relative="1" as="geometry">
            <mxPoint x="976" y="1054.8181818181818" as="targetPoint" />
          </mxGeometry>
        </mxCell>
        <mxCell id="tWL3oWKNITc_VHTO6xsC-67" value="&lt;div&gt;OrderProxy implements IOrderService&lt;/div&gt;" style="swimlane;fontStyle=1;align=center;verticalAlign=top;childLayout=stackLayout;horizontal=1;startSize=26;horizontalStack=0;resizeParent=1;resizeParentMax=0;resizeLast=0;collapsible=1;marginBottom=0;whiteSpace=wrap;html=1;" vertex="1" parent="WIyWlLk6GJQsqaUBKTNV-1">
          <mxGeometry x="845" y="1121" width="260" height="112" as="geometry" />
        </mxCell>
        <mxCell id="tWL3oWKNITc_VHTO6xsC-68" value="+ orderCache: List&amp;lt;Order&amp;gt;" style="text;strokeColor=none;fillColor=none;align=left;verticalAlign=top;spacingLeft=4;spacingRight=4;overflow=hidden;rotatable=0;points=[[0,0.5],[1,0.5]];portConstraint=eastwest;whiteSpace=wrap;html=1;" vertex="1" parent="tWL3oWKNITc_VHTO6xsC-67">
          <mxGeometry y="26" width="260" height="26" as="geometry" />
        </mxCell>
        <mxCell id="tWL3oWKNITc_VHTO6xsC-69" value="" style="line;strokeWidth=1;fillColor=none;align=left;verticalAlign=middle;spacingTop=-1;spacingLeft=3;spacingRight=3;rotatable=0;labelPosition=right;points=[];portConstraint=eastwest;strokeColor=inherit;" vertex="1" parent="tWL3oWKNITc_VHTO6xsC-67">
          <mxGeometry y="52" width="260" height="8" as="geometry" />
        </mxCell>
        <mxCell id="tWL3oWKNITc_VHTO6xsC-70" value="+ getOrder(Long): Order" style="text;strokeColor=none;fillColor=none;align=left;verticalAlign=top;spacingLeft=4;spacingRight=4;overflow=hidden;rotatable=0;points=[[0,0.5],[1,0.5]];portConstraint=eastwest;whiteSpace=wrap;html=1;" vertex="1" parent="tWL3oWKNITc_VHTO6xsC-67">
          <mxGeometry y="60" width="260" height="26" as="geometry" />
        </mxCell>
        <mxCell id="tWL3oWKNITc_VHTO6xsC-191" value="+ getAllOrder() : List&amp;lt;Order&amp;gt;" style="text;strokeColor=none;fillColor=none;align=left;verticalAlign=top;spacingLeft=4;spacingRight=4;overflow=hidden;rotatable=0;points=[[0,0.5],[1,0.5]];portConstraint=eastwest;whiteSpace=wrap;html=1;" vertex="1" parent="tWL3oWKNITc_VHTO6xsC-67">
          <mxGeometry y="86" width="260" height="26" as="geometry" />
        </mxCell>
        <mxCell id="tWL3oWKNITc_VHTO6xsC-213" style="edgeStyle=orthogonalEdgeStyle;rounded=0;orthogonalLoop=1;jettySize=auto;html=1;entryX=0.5;entryY=1;entryDx=0;entryDy=0;" edge="1" parent="WIyWlLk6GJQsqaUBKTNV-1" source="tWL3oWKNITc_VHTO6xsC-71" target="tWL3oWKNITc_VHTO6xsC-101">
          <mxGeometry relative="1" as="geometry" />
        </mxCell>
        <mxCell id="tWL3oWKNITc_VHTO6xsC-71" value="&lt;div&gt;MenuProxy implements IMenuService&lt;/div&gt;" style="swimlane;fontStyle=1;align=center;verticalAlign=top;childLayout=stackLayout;horizontal=1;startSize=26;horizontalStack=0;resizeParent=1;resizeParentMax=0;resizeLast=0;collapsible=1;marginBottom=0;whiteSpace=wrap;html=1;" vertex="1" parent="WIyWlLk6GJQsqaUBKTNV-1">
          <mxGeometry x="1345" y="1155" width="246" height="112" as="geometry" />
        </mxCell>
        <mxCell id="tWL3oWKNITc_VHTO6xsC-72" value="+ menuCache: List&amp;lt;Menu&amp;gt;" style="text;strokeColor=none;fillColor=none;align=left;verticalAlign=top;spacingLeft=4;spacingRight=4;overflow=hidden;rotatable=0;points=[[0,0.5],[1,0.5]];portConstraint=eastwest;whiteSpace=wrap;html=1;" vertex="1" parent="tWL3oWKNITc_VHTO6xsC-71">
          <mxGeometry y="26" width="246" height="26" as="geometry" />
        </mxCell>
        <mxCell id="tWL3oWKNITc_VHTO6xsC-73" value="" style="line;strokeWidth=1;fillColor=none;align=left;verticalAlign=middle;spacingTop=-1;spacingLeft=3;spacingRight=3;rotatable=0;labelPosition=right;points=[];portConstraint=eastwest;strokeColor=inherit;" vertex="1" parent="tWL3oWKNITc_VHTO6xsC-71">
          <mxGeometry y="52" width="246" height="8" as="geometry" />
        </mxCell>
        <mxCell id="tWL3oWKNITc_VHTO6xsC-74" value="+ getMenu(Long): Menu" style="text;strokeColor=none;fillColor=none;align=left;verticalAlign=top;spacingLeft=4;spacingRight=4;overflow=hidden;rotatable=0;points=[[0,0.5],[1,0.5]];portConstraint=eastwest;whiteSpace=wrap;html=1;" vertex="1" parent="tWL3oWKNITc_VHTO6xsC-71">
          <mxGeometry y="60" width="246" height="26" as="geometry" />
        </mxCell>
        <mxCell id="tWL3oWKNITc_VHTO6xsC-205" value="+ getAllMenu (): List&amp;lt;Menu&amp;gt;" style="text;strokeColor=none;fillColor=none;align=left;verticalAlign=top;spacingLeft=4;spacingRight=4;overflow=hidden;rotatable=0;points=[[0,0.5],[1,0.5]];portConstraint=eastwest;whiteSpace=wrap;html=1;" vertex="1" parent="tWL3oWKNITc_VHTO6xsC-71">
          <mxGeometry y="86" width="246" height="26" as="geometry" />
        </mxCell>
        <mxCell id="tWL3oWKNITc_VHTO6xsC-81" style="edgeStyle=orthogonalEdgeStyle;rounded=0;orthogonalLoop=1;jettySize=auto;html=1;entryX=0.5;entryY=0;entryDx=0;entryDy=0;" edge="1" parent="WIyWlLk6GJQsqaUBKTNV-1" source="tWL3oWKNITc_VHTO6xsC-36" target="tWL3oWKNITc_VHTO6xsC-4">
          <mxGeometry relative="1" as="geometry" />
        </mxCell>
        <mxCell id="tWL3oWKNITc_VHTO6xsC-82" style="edgeStyle=orthogonalEdgeStyle;rounded=0;orthogonalLoop=1;jettySize=auto;html=1;entryX=0.444;entryY=0.003;entryDx=0;entryDy=0;entryPerimeter=0;" edge="1" parent="WIyWlLk6GJQsqaUBKTNV-1" source="tWL3oWKNITc_VHTO6xsC-36" target="tWL3oWKNITc_VHTO6xsC-16">
          <mxGeometry relative="1" as="geometry" />
        </mxCell>
        <mxCell id="tWL3oWKNITc_VHTO6xsC-89" value="CustomerService implements ICustomerService, IObserver" style="swimlane;fontStyle=1;align=center;verticalAlign=top;childLayout=stackLayout;horizontal=1;startSize=26;horizontalStack=0;resizeParent=1;resizeParentMax=0;resizeLast=0;collapsible=1;marginBottom=0;whiteSpace=wrap;html=1;" vertex="1" parent="WIyWlLk6GJQsqaUBKTNV-1">
          <mxGeometry x="-712" y="883" width="345" height="156" as="geometry" />
        </mxCell>
        <mxCell id="tWL3oWKNITc_VHTO6xsC-92" value="+ addCustomer(Customer): void" style="text;strokeColor=none;fillColor=none;align=left;verticalAlign=top;spacingLeft=4;spacingRight=4;overflow=hidden;rotatable=0;points=[[0,0.5],[1,0.5]];portConstraint=eastwest;whiteSpace=wrap;html=1;" vertex="1" parent="tWL3oWKNITc_VHTO6xsC-89">
          <mxGeometry y="26" width="345" height="26" as="geometry" />
        </mxCell>
        <mxCell id="tWL3oWKNITc_VHTO6xsC-144" value="+ getCustomer(Long) : Customer" style="text;strokeColor=none;fillColor=none;align=left;verticalAlign=top;spacingLeft=4;spacingRight=4;overflow=hidden;rotatable=0;points=[[0,0.5],[1,0.5]];portConstraint=eastwest;whiteSpace=wrap;html=1;" vertex="1" parent="tWL3oWKNITc_VHTO6xsC-89">
          <mxGeometry y="52" width="345" height="26" as="geometry" />
        </mxCell>
        <mxCell id="tWL3oWKNITc_VHTO6xsC-143" value="+ getAllCustomer() : List&amp;lt;Customer&amp;gt;" style="text;strokeColor=none;fillColor=none;align=left;verticalAlign=top;spacingLeft=4;spacingRight=4;overflow=hidden;rotatable=0;points=[[0,0.5],[1,0.5]];portConstraint=eastwest;whiteSpace=wrap;html=1;" vertex="1" parent="tWL3oWKNITc_VHTO6xsC-89">
          <mxGeometry y="78" width="345" height="26" as="geometry" />
        </mxCell>
        <mxCell id="tWL3oWKNITc_VHTO6xsC-142" value="+ updateCustomer (Long, Customer) : Customer" style="text;strokeColor=none;fillColor=none;align=left;verticalAlign=top;spacingLeft=4;spacingRight=4;overflow=hidden;rotatable=0;points=[[0,0.5],[1,0.5]];portConstraint=eastwest;whiteSpace=wrap;html=1;" vertex="1" parent="tWL3oWKNITc_VHTO6xsC-89">
          <mxGeometry y="104" width="345" height="26" as="geometry" />
        </mxCell>
        <mxCell id="tWL3oWKNITc_VHTO6xsC-146" value="+ deleteCustomer (Long) : void" style="text;strokeColor=none;fillColor=none;align=left;verticalAlign=top;spacingLeft=4;spacingRight=4;overflow=hidden;rotatable=0;points=[[0,0.5],[1,0.5]];portConstraint=eastwest;whiteSpace=wrap;html=1;" vertex="1" parent="tWL3oWKNITc_VHTO6xsC-89">
          <mxGeometry y="130" width="345" height="26" as="geometry" />
        </mxCell>
        <mxCell id="tWL3oWKNITc_VHTO6xsC-93" value="&lt;div&gt;ReservationService implements&amp;nbsp;&lt;b style=&quot;background-color: transparent; color: light-dark(rgb(0, 0, 0), rgb(255, 255, 255));&quot;&gt;IReservationService&lt;/b&gt;&lt;/div&gt;" style="swimlane;fontStyle=1;align=center;verticalAlign=top;childLayout=stackLayout;horizontal=1;startSize=26;horizontalStack=0;resizeParent=1;resizeParentMax=0;resizeLast=0;collapsible=1;marginBottom=0;whiteSpace=wrap;html=1;" vertex="1" parent="WIyWlLk6GJQsqaUBKTNV-1">
          <mxGeometry x="-5" y="911.5" width="331" height="156" as="geometry" />
        </mxCell>
        <mxCell id="tWL3oWKNITc_VHTO6xsC-96" value="+ addReservation(Reservation): void" style="text;strokeColor=none;fillColor=none;align=left;verticalAlign=top;spacingLeft=4;spacingRight=4;overflow=hidden;rotatable=0;points=[[0,0.5],[1,0.5]];portConstraint=eastwest;whiteSpace=wrap;html=1;" vertex="1" parent="tWL3oWKNITc_VHTO6xsC-93">
          <mxGeometry y="26" width="331" height="26" as="geometry" />
        </mxCell>
        <mxCell id="tWL3oWKNITc_VHTO6xsC-170" value="+ getReservation(Long): Reservation" style="text;strokeColor=none;fillColor=none;align=left;verticalAlign=top;spacingLeft=4;spacingRight=4;overflow=hidden;rotatable=0;points=[[0,0.5],[1,0.5]];portConstraint=eastwest;whiteSpace=wrap;html=1;" vertex="1" parent="tWL3oWKNITc_VHTO6xsC-93">
          <mxGeometry y="52" width="331" height="26" as="geometry" />
        </mxCell>
        <mxCell id="tWL3oWKNITc_VHTO6xsC-171" value="+ getAllReservation():List&amp;lt;Reservation&amp;gt;" style="text;strokeColor=none;fillColor=none;align=left;verticalAlign=top;spacingLeft=4;spacingRight=4;overflow=hidden;rotatable=0;points=[[0,0.5],[1,0.5]];portConstraint=eastwest;whiteSpace=wrap;html=1;" vertex="1" parent="tWL3oWKNITc_VHTO6xsC-93">
          <mxGeometry y="78" width="331" height="26" as="geometry" />
        </mxCell>
        <mxCell id="tWL3oWKNITc_VHTO6xsC-172" value="+ updateReservation(Long, Reservation): Reservation&amp;nbsp;&amp;nbsp;" style="text;strokeColor=none;fillColor=none;align=left;verticalAlign=top;spacingLeft=4;spacingRight=4;overflow=hidden;rotatable=0;points=[[0,0.5],[1,0.5]];portConstraint=eastwest;whiteSpace=wrap;html=1;" vertex="1" parent="tWL3oWKNITc_VHTO6xsC-93">
          <mxGeometry y="104" width="331" height="26" as="geometry" />
        </mxCell>
        <mxCell id="tWL3oWKNITc_VHTO6xsC-173" value="+ deleteReservation (Long): void" style="text;strokeColor=none;fillColor=none;align=left;verticalAlign=top;spacingLeft=4;spacingRight=4;overflow=hidden;rotatable=0;points=[[0,0.5],[1,0.5]];portConstraint=eastwest;whiteSpace=wrap;html=1;" vertex="1" parent="tWL3oWKNITc_VHTO6xsC-93">
          <mxGeometry y="130" width="331" height="26" as="geometry" />
        </mxCell>
        <mxCell id="tWL3oWKNITc_VHTO6xsC-236" style="edgeStyle=orthogonalEdgeStyle;rounded=0;orthogonalLoop=1;jettySize=auto;html=1;entryX=0.502;entryY=0.965;entryDx=0;entryDy=0;entryPerimeter=0;" edge="1" parent="WIyWlLk6GJQsqaUBKTNV-1" source="tWL3oWKNITc_VHTO6xsC-97" target="tWL3oWKNITc_VHTO6xsC-261">
          <mxGeometry relative="1" as="geometry">
            <mxPoint x="957" y="731.3529411764707" as="targetPoint" />
          </mxGeometry>
        </mxCell>
        <mxCell id="tWL3oWKNITc_VHTO6xsC-97" value="&lt;div&gt;OrderService Implements IOrderService, IObservable&lt;/div&gt;" style="swimlane;fontStyle=1;align=center;verticalAlign=top;childLayout=stackLayout;horizontal=1;startSize=26;horizontalStack=0;resizeParent=1;resizeParentMax=0;resizeLast=0;collapsible=1;marginBottom=0;whiteSpace=wrap;html=1;" vertex="1" parent="WIyWlLk6GJQsqaUBKTNV-1">
          <mxGeometry x="799" y="894" width="316" height="156" as="geometry" />
        </mxCell>
        <mxCell id="tWL3oWKNITc_VHTO6xsC-100" value="+ addOrder(Order): void" style="text;strokeColor=none;fillColor=none;align=left;verticalAlign=top;spacingLeft=4;spacingRight=4;overflow=hidden;rotatable=0;points=[[0,0.5],[1,0.5]];portConstraint=eastwest;whiteSpace=wrap;html=1;" vertex="1" parent="tWL3oWKNITc_VHTO6xsC-97">
          <mxGeometry y="26" width="316" height="26" as="geometry" />
        </mxCell>
        <mxCell id="tWL3oWKNITc_VHTO6xsC-188" value="+ getOrder (Long) : void" style="text;strokeColor=none;fillColor=none;align=left;verticalAlign=top;spacingLeft=4;spacingRight=4;overflow=hidden;rotatable=0;points=[[0,0.5],[1,0.5]];portConstraint=eastwest;whiteSpace=wrap;html=1;" vertex="1" parent="tWL3oWKNITc_VHTO6xsC-97">
          <mxGeometry y="52" width="316" height="26" as="geometry" />
        </mxCell>
        <mxCell id="tWL3oWKNITc_VHTO6xsC-187" value="+getAllOrder():List&amp;lt;Order&amp;gt;" style="text;strokeColor=none;fillColor=none;align=left;verticalAlign=top;spacingLeft=4;spacingRight=4;overflow=hidden;rotatable=0;points=[[0,0.5],[1,0.5]];portConstraint=eastwest;whiteSpace=wrap;html=1;" vertex="1" parent="tWL3oWKNITc_VHTO6xsC-97">
          <mxGeometry y="78" width="316" height="26" as="geometry" />
        </mxCell>
        <mxCell id="tWL3oWKNITc_VHTO6xsC-186" value="+ updateOrder(Long, Order): Order" style="text;strokeColor=none;fillColor=none;align=left;verticalAlign=top;spacingLeft=4;spacingRight=4;overflow=hidden;rotatable=0;points=[[0,0.5],[1,0.5]];portConstraint=eastwest;whiteSpace=wrap;html=1;" vertex="1" parent="tWL3oWKNITc_VHTO6xsC-97">
          <mxGeometry y="104" width="316" height="26" as="geometry" />
        </mxCell>
        <mxCell id="tWL3oWKNITc_VHTO6xsC-185" value="+ deleteOrder(Long): void" style="text;strokeColor=none;fillColor=none;align=left;verticalAlign=top;spacingLeft=4;spacingRight=4;overflow=hidden;rotatable=0;points=[[0,0.5],[1,0.5]];portConstraint=eastwest;whiteSpace=wrap;html=1;" vertex="1" parent="tWL3oWKNITc_VHTO6xsC-97">
          <mxGeometry y="130" width="316" height="26" as="geometry" />
        </mxCell>
        <mxCell id="tWL3oWKNITc_VHTO6xsC-203" style="edgeStyle=orthogonalEdgeStyle;rounded=0;orthogonalLoop=1;jettySize=auto;html=1;entryX=0.5;entryY=1;entryDx=0;entryDy=0;" edge="1" parent="WIyWlLk6GJQsqaUBKTNV-1" source="tWL3oWKNITc_VHTO6xsC-101" target="tWL3oWKNITc_VHTO6xsC-43">
          <mxGeometry relative="1" as="geometry">
            <Array as="points">
              <mxPoint x="1433" y="766" />
              <mxPoint x="1433" y="766" />
            </Array>
          </mxGeometry>
        </mxCell>
        <mxCell id="tWL3oWKNITc_VHTO6xsC-101" value="&lt;div&gt;MenuService implements IMenuService, IObserver&lt;/div&gt;" style="swimlane;fontStyle=1;align=center;verticalAlign=top;childLayout=stackLayout;horizontal=1;startSize=26;horizontalStack=0;resizeParent=1;resizeParentMax=0;resizeLast=0;collapsible=1;marginBottom=0;whiteSpace=wrap;html=1;" vertex="1" parent="WIyWlLk6GJQsqaUBKTNV-1">
          <mxGeometry x="1304.25" y="770" width="327.5" height="156" as="geometry" />
        </mxCell>
        <mxCell id="tWL3oWKNITc_VHTO6xsC-104" value="+ addMenu(Menu): void" style="text;strokeColor=none;fillColor=none;align=left;verticalAlign=top;spacingLeft=4;spacingRight=4;overflow=hidden;rotatable=0;points=[[0,0.5],[1,0.5]];portConstraint=eastwest;whiteSpace=wrap;html=1;" vertex="1" parent="tWL3oWKNITc_VHTO6xsC-101">
          <mxGeometry y="26" width="327.5" height="26" as="geometry" />
        </mxCell>
        <mxCell id="tWL3oWKNITc_VHTO6xsC-198" value="+ deleteMenu (Long) void" style="text;strokeColor=none;fillColor=none;align=left;verticalAlign=top;spacingLeft=4;spacingRight=4;overflow=hidden;rotatable=0;points=[[0,0.5],[1,0.5]];portConstraint=eastwest;whiteSpace=wrap;html=1;" vertex="1" parent="tWL3oWKNITc_VHTO6xsC-101">
          <mxGeometry y="52" width="327.5" height="26" as="geometry" />
        </mxCell>
        <mxCell id="tWL3oWKNITc_VHTO6xsC-199" value="+ updateMenu(Long, Menu): Menu&amp;nbsp;" style="text;strokeColor=none;fillColor=none;align=left;verticalAlign=top;spacingLeft=4;spacingRight=4;overflow=hidden;rotatable=0;points=[[0,0.5],[1,0.5]];portConstraint=eastwest;whiteSpace=wrap;html=1;" vertex="1" parent="tWL3oWKNITc_VHTO6xsC-101">
          <mxGeometry y="78" width="327.5" height="26" as="geometry" />
        </mxCell>
        <mxCell id="tWL3oWKNITc_VHTO6xsC-200" value="+ getAllMenu () : List&amp;lt;Menu&amp;gt;" style="text;strokeColor=none;fillColor=none;align=left;verticalAlign=top;spacingLeft=4;spacingRight=4;overflow=hidden;rotatable=0;points=[[0,0.5],[1,0.5]];portConstraint=eastwest;whiteSpace=wrap;html=1;" vertex="1" parent="tWL3oWKNITc_VHTO6xsC-101">
          <mxGeometry y="104" width="327.5" height="26" as="geometry" />
        </mxCell>
        <mxCell id="tWL3oWKNITc_VHTO6xsC-201" value="+ getMenu(Long): Menu" style="text;strokeColor=none;fillColor=none;align=left;verticalAlign=top;spacingLeft=4;spacingRight=4;overflow=hidden;rotatable=0;points=[[0,0.5],[1,0.5]];portConstraint=eastwest;whiteSpace=wrap;html=1;" vertex="1" parent="tWL3oWKNITc_VHTO6xsC-101">
          <mxGeometry y="130" width="327.5" height="26" as="geometry" />
        </mxCell>
        <mxCell id="tWL3oWKNITc_VHTO6xsC-110" value="CustomerController" style="swimlane;fontStyle=1;align=center;verticalAlign=top;childLayout=stackLayout;horizontal=1;startSize=26;horizontalStack=0;resizeParent=1;resizeParentMax=0;resizeLast=0;collapsible=1;marginBottom=0;whiteSpace=wrap;html=1;" vertex="1" parent="WIyWlLk6GJQsqaUBKTNV-1">
          <mxGeometry x="-971" y="1422" width="491" height="122" as="geometry" />
        </mxCell>
        <mxCell id="tWL3oWKNITc_VHTO6xsC-111" value="+ createCustomer(CustomerRequestDto): ResponseEntity&amp;lt;CustomerResponseDto&amp;gt;&lt;div&gt;+ getCustomer (Long): RespondsEntity&amp;lt;CutomerResponseDto&amp;gt;&lt;/div&gt;&lt;div&gt;+ getAllCustomer(): RespondeEntity&amp;lt;List&amp;lt;CustomerRespondeDto&amp;gt;&amp;gt;&lt;/div&gt;&lt;div&gt;+updateCustomer(Long, CustomerRequestDto):ResponseEntity&amp;lt;CustomerResponseDto&amp;gt;&lt;/div&gt;&lt;div&gt;+ deleteCustomer(Long) ResponseEntity&amp;lt;Void&amp;gt;&lt;/div&gt;" style="text;strokeColor=none;fillColor=none;align=left;verticalAlign=top;spacingLeft=4;spacingRight=4;overflow=hidden;rotatable=0;points=[[0,0.5],[1,0.5]];portConstraint=eastwest;whiteSpace=wrap;html=1;" vertex="1" parent="tWL3oWKNITc_VHTO6xsC-110">
          <mxGeometry y="26" width="491" height="96" as="geometry" />
        </mxCell>
        <mxCell id="tWL3oWKNITc_VHTO6xsC-340" style="edgeStyle=orthogonalEdgeStyle;rounded=0;orthogonalLoop=1;jettySize=auto;html=1;entryX=0.242;entryY=0.893;entryDx=0;entryDy=0;entryPerimeter=0;" edge="1" parent="WIyWlLk6GJQsqaUBKTNV-1" source="tWL3oWKNITc_VHTO6xsC-114" target="tWL3oWKNITc_VHTO6xsC-177">
          <mxGeometry relative="1" as="geometry">
            <mxPoint x="295" y="1255.1428571428569" as="targetPoint" />
            <Array as="points">
              <mxPoint x="71" y="1340" />
              <mxPoint x="69" y="1340" />
            </Array>
          </mxGeometry>
        </mxCell>
        <mxCell id="tWL3oWKNITc_VHTO6xsC-114" value="&lt;div&gt;ReservationController&lt;/div&gt;" style="swimlane;fontStyle=1;align=center;verticalAlign=top;childLayout=stackLayout;horizontal=1;startSize=26;horizontalStack=0;resizeParent=1;resizeParentMax=0;resizeLast=0;collapsible=1;marginBottom=0;whiteSpace=wrap;html=1;" vertex="1" parent="WIyWlLk6GJQsqaUBKTNV-1">
          <mxGeometry x="-131" y="1409" width="520" height="156" as="geometry" />
        </mxCell>
        <mxCell id="tWL3oWKNITc_VHTO6xsC-117" value="+ createReservation(ReservationRequestDto): ResponseEntity&amp;lt;ReservationResponseDto&amp;gt;" style="text;strokeColor=none;fillColor=none;align=left;verticalAlign=top;spacingLeft=4;spacingRight=4;overflow=hidden;rotatable=0;points=[[0,0.5],[1,0.5]];portConstraint=eastwest;whiteSpace=wrap;html=1;" vertex="1" parent="tWL3oWKNITc_VHTO6xsC-114">
          <mxGeometry y="26" width="520" height="26" as="geometry" />
        </mxCell>
        <mxCell id="tWL3oWKNITc_VHTO6xsC-401" value="+getReservation(Long): ResponseEntity&amp;lt;ReservationResponseDto&amp;gt;" style="text;strokeColor=none;fillColor=none;align=left;verticalAlign=top;spacingLeft=4;spacingRight=4;overflow=hidden;rotatable=0;points=[[0,0.5],[1,0.5]];portConstraint=eastwest;whiteSpace=wrap;html=1;" vertex="1" parent="tWL3oWKNITc_VHTO6xsC-114">
          <mxGeometry y="52" width="520" height="26" as="geometry" />
        </mxCell>
        <mxCell id="tWL3oWKNITc_VHTO6xsC-400" value="+getAllReservation():ResponseEntity&amp;lt;List&amp;lt;ReservationResponseDto&amp;gt;&amp;gt;" style="text;strokeColor=none;fillColor=none;align=left;verticalAlign=top;spacingLeft=4;spacingRight=4;overflow=hidden;rotatable=0;points=[[0,0.5],[1,0.5]];portConstraint=eastwest;whiteSpace=wrap;html=1;" vertex="1" parent="tWL3oWKNITc_VHTO6xsC-114">
          <mxGeometry y="78" width="520" height="26" as="geometry" />
        </mxCell>
        <mxCell id="tWL3oWKNITc_VHTO6xsC-399" value="+updateReservation(Long,ReservationRequestDto):ResponseEntity&amp;lt;ReservationResponseDto&amp;gt;" style="text;strokeColor=none;fillColor=none;align=left;verticalAlign=top;spacingLeft=4;spacingRight=4;overflow=hidden;rotatable=0;points=[[0,0.5],[1,0.5]];portConstraint=eastwest;whiteSpace=wrap;html=1;" vertex="1" parent="tWL3oWKNITc_VHTO6xsC-114">
          <mxGeometry y="104" width="520" height="26" as="geometry" />
        </mxCell>
        <mxCell id="tWL3oWKNITc_VHTO6xsC-398" value="deleteReservation(Long): ReservationEntity&amp;lt;Void&amp;gt;" style="text;strokeColor=none;fillColor=none;align=left;verticalAlign=top;spacingLeft=4;spacingRight=4;overflow=hidden;rotatable=0;points=[[0,0.5],[1,0.5]];portConstraint=eastwest;whiteSpace=wrap;html=1;" vertex="1" parent="tWL3oWKNITc_VHTO6xsC-114">
          <mxGeometry y="130" width="520" height="26" as="geometry" />
        </mxCell>
        <mxCell id="tWL3oWKNITc_VHTO6xsC-222" style="edgeStyle=orthogonalEdgeStyle;rounded=0;orthogonalLoop=1;jettySize=auto;html=1;" edge="1" parent="WIyWlLk6GJQsqaUBKTNV-1" source="tWL3oWKNITc_VHTO6xsC-118">
          <mxGeometry relative="1" as="geometry">
            <mxPoint x="975" y="1237.5000000000002" as="targetPoint" />
            <Array as="points">
              <mxPoint x="975" y="1307" />
              <mxPoint x="976" y="1307" />
              <mxPoint x="976" y="1238" />
            </Array>
          </mxGeometry>
        </mxCell>
        <mxCell id="tWL3oWKNITc_VHTO6xsC-118" value="&lt;div&gt;OrderContoller&lt;/div&gt;" style="swimlane;fontStyle=1;align=center;verticalAlign=top;childLayout=stackLayout;horizontal=1;startSize=26;horizontalStack=0;resizeParent=1;resizeParentMax=0;resizeLast=0;collapsible=1;marginBottom=0;whiteSpace=wrap;html=1;" vertex="1" parent="WIyWlLk6GJQsqaUBKTNV-1">
          <mxGeometry x="735" y="1402" width="438" height="156" as="geometry" />
        </mxCell>
        <mxCell id="tWL3oWKNITc_VHTO6xsC-121" value="+ addOrder(OrderRequestDto): ResponseEntity&amp;lt;String&amp;gt;" style="text;strokeColor=none;fillColor=none;align=left;verticalAlign=top;spacingLeft=4;spacingRight=4;overflow=hidden;rotatable=0;points=[[0,0.5],[1,0.5]];portConstraint=eastwest;whiteSpace=wrap;html=1;" vertex="1" parent="tWL3oWKNITc_VHTO6xsC-118">
          <mxGeometry y="26" width="438" height="26" as="geometry" />
        </mxCell>
        <mxCell id="tWL3oWKNITc_VHTO6xsC-220" value="+ getOrder(Long): RespondeEntity&amp;lt;OrderRespondeDto&amp;gt;" style="text;strokeColor=none;fillColor=none;align=left;verticalAlign=top;spacingLeft=4;spacingRight=4;overflow=hidden;rotatable=0;points=[[0,0.5],[1,0.5]];portConstraint=eastwest;whiteSpace=wrap;html=1;" vertex="1" parent="tWL3oWKNITc_VHTO6xsC-118">
          <mxGeometry y="52" width="438" height="26" as="geometry" />
        </mxCell>
        <mxCell id="tWL3oWKNITc_VHTO6xsC-219" value="+ getAllOrder(Long): ResponseEntity&amp;lt;List&amp;lt;OrderResponseDto&amp;gt;&amp;gt;" style="text;strokeColor=none;fillColor=none;align=left;verticalAlign=top;spacingLeft=4;spacingRight=4;overflow=hidden;rotatable=0;points=[[0,0.5],[1,0.5]];portConstraint=eastwest;whiteSpace=wrap;html=1;" vertex="1" parent="tWL3oWKNITc_VHTO6xsC-118">
          <mxGeometry y="78" width="438" height="26" as="geometry" />
        </mxCell>
        <mxCell id="tWL3oWKNITc_VHTO6xsC-218" value="+ updateOrder(Long, OrderRequestDto) : ResponseEntity&amp;lt;OrderResponseDto&amp;gt;" style="text;strokeColor=none;fillColor=none;align=left;verticalAlign=top;spacingLeft=4;spacingRight=4;overflow=hidden;rotatable=0;points=[[0,0.5],[1,0.5]];portConstraint=eastwest;whiteSpace=wrap;html=1;" vertex="1" parent="tWL3oWKNITc_VHTO6xsC-118">
          <mxGeometry y="104" width="438" height="26" as="geometry" />
        </mxCell>
        <mxCell id="tWL3oWKNITc_VHTO6xsC-217" value="+ deleteOrder(Long): RespondeEntity&amp;lt;void&amp;gt;" style="text;strokeColor=none;fillColor=none;align=left;verticalAlign=top;spacingLeft=4;spacingRight=4;overflow=hidden;rotatable=0;points=[[0,0.5],[1,0.5]];portConstraint=eastwest;whiteSpace=wrap;html=1;" vertex="1" parent="tWL3oWKNITc_VHTO6xsC-118">
          <mxGeometry y="130" width="438" height="26" as="geometry" />
        </mxCell>
        <mxCell id="tWL3oWKNITc_VHTO6xsC-394" style="edgeStyle=orthogonalEdgeStyle;rounded=0;orthogonalLoop=1;jettySize=auto;html=1;" edge="1" parent="WIyWlLk6GJQsqaUBKTNV-1" source="tWL3oWKNITc_VHTO6xsC-122">
          <mxGeometry relative="1" as="geometry">
            <mxPoint x="1474.1851851851848" y="1274.037037037037" as="targetPoint" />
          </mxGeometry>
        </mxCell>
        <mxCell id="tWL3oWKNITc_VHTO6xsC-122" value="&lt;div&gt;MenuContoller&lt;/div&gt;" style="swimlane;fontStyle=1;align=center;verticalAlign=top;childLayout=stackLayout;horizontal=1;startSize=26;horizontalStack=0;resizeParent=1;resizeParentMax=0;resizeLast=0;collapsible=1;marginBottom=0;whiteSpace=wrap;html=1;" vertex="1" parent="WIyWlLk6GJQsqaUBKTNV-1">
          <mxGeometry x="1466" y="1366" width="434" height="156" as="geometry" />
        </mxCell>
        <mxCell id="tWL3oWKNITc_VHTO6xsC-125" value="+ createMenu(MenuRequestDto): ResponseEntity&amp;lt;MenuResponseDto&amp;gt;" style="text;strokeColor=none;fillColor=none;align=left;verticalAlign=top;spacingLeft=4;spacingRight=4;overflow=hidden;rotatable=0;points=[[0,0.5],[1,0.5]];portConstraint=eastwest;whiteSpace=wrap;html=1;" vertex="1" parent="tWL3oWKNITc_VHTO6xsC-122">
          <mxGeometry y="26" width="434" height="26" as="geometry" />
        </mxCell>
        <mxCell id="tWL3oWKNITc_VHTO6xsC-387" value="+ getMenu(Long) ResponseEntity&amp;lt;MenuResponseDto&amp;gt;" style="text;strokeColor=none;fillColor=none;align=left;verticalAlign=top;spacingLeft=4;spacingRight=4;overflow=hidden;rotatable=0;points=[[0,0.5],[1,0.5]];portConstraint=eastwest;whiteSpace=wrap;html=1;" vertex="1" parent="tWL3oWKNITc_VHTO6xsC-122">
          <mxGeometry y="52" width="434" height="26" as="geometry" />
        </mxCell>
        <mxCell id="tWL3oWKNITc_VHTO6xsC-386" value="+ getAllMenu():ResponseEntity&amp;lt;List&amp;lt;MenuResponseDto&amp;gt;&amp;gt;" style="text;strokeColor=none;fillColor=none;align=left;verticalAlign=top;spacingLeft=4;spacingRight=4;overflow=hidden;rotatable=0;points=[[0,0.5],[1,0.5]];portConstraint=eastwest;whiteSpace=wrap;html=1;" vertex="1" parent="tWL3oWKNITc_VHTO6xsC-122">
          <mxGeometry y="78" width="434" height="26" as="geometry" />
        </mxCell>
        <mxCell id="tWL3oWKNITc_VHTO6xsC-385" value="+ updateMenu(Long, MenuRequestDto): ResponseEntity&amp;lt;MenuResponseDto&amp;gt;&amp;nbsp;" style="text;strokeColor=none;fillColor=none;align=left;verticalAlign=top;spacingLeft=4;spacingRight=4;overflow=hidden;rotatable=0;points=[[0,0.5],[1,0.5]];portConstraint=eastwest;whiteSpace=wrap;html=1;" vertex="1" parent="tWL3oWKNITc_VHTO6xsC-122">
          <mxGeometry y="104" width="434" height="26" as="geometry" />
        </mxCell>
        <mxCell id="tWL3oWKNITc_VHTO6xsC-384" value="+deleteMenu(Long) ResponseEntity&amp;lt;Void&amp;gt;" style="text;strokeColor=none;fillColor=none;align=left;verticalAlign=top;spacingLeft=4;spacingRight=4;overflow=hidden;rotatable=0;points=[[0,0.5],[1,0.5]];portConstraint=eastwest;whiteSpace=wrap;html=1;" vertex="1" parent="tWL3oWKNITc_VHTO6xsC-122">
          <mxGeometry y="130" width="434" height="26" as="geometry" />
        </mxCell>
        <mxCell id="tWL3oWKNITc_VHTO6xsC-167" style="edgeStyle=orthogonalEdgeStyle;rounded=0;orthogonalLoop=1;jettySize=auto;html=1;entryX=0;entryY=0.5;entryDx=0;entryDy=0;" edge="1" parent="WIyWlLk6GJQsqaUBKTNV-1" target="tWL3oWKNITc_VHTO6xsC-144">
          <mxGeometry relative="1" as="geometry">
            <mxPoint x="-781.0045454545457" y="1027" as="sourcePoint" />
          </mxGeometry>
        </mxCell>
        <mxCell id="tWL3oWKNITc_VHTO6xsC-148" value="&lt;p style=&quot;margin:0px;margin-top:4px;text-align:center;&quot;&gt;&lt;i&gt;&amp;lt;&amp;lt;Interface&amp;gt;&amp;gt;&lt;/i&gt;&lt;br&gt;&lt;b&gt;ICustomerService&lt;/b&gt;&lt;/p&gt;&lt;hr size=&quot;1&quot; style=&quot;border-style:solid;&quot;&gt;&lt;p style=&quot;margin:0px;margin-left:4px;&quot;&gt;&lt;/p&gt;&lt;p style=&quot;margin:0px;margin-left:4px;&quot;&gt;+ getCustomer(Long) : Customer&lt;/p&gt;&lt;p style=&quot;margin:0px;margin-left:4px;&quot;&gt;+ getAllCustomer() : List&amp;lt;Customer&amp;gt;&lt;/p&gt;&lt;p style=&quot;margin:0px;margin-left:4px;&quot;&gt;&lt;br&gt;&lt;/p&gt;" style="verticalAlign=top;align=left;overflow=fill;html=1;whiteSpace=wrap;" vertex="1" parent="WIyWlLk6GJQsqaUBKTNV-1">
          <mxGeometry x="-925" y="1025" width="207" height="76" as="geometry" />
        </mxCell>
        <mxCell id="tWL3oWKNITc_VHTO6xsC-154" style="edgeStyle=orthogonalEdgeStyle;rounded=0;orthogonalLoop=1;jettySize=auto;html=1;entryX=0.341;entryY=0.04;entryDx=0;entryDy=0;entryPerimeter=0;" edge="1" parent="WIyWlLk6GJQsqaUBKTNV-1" source="tWL3oWKNITc_VHTO6xsC-46" target="tWL3oWKNITc_VHTO6xsC-43">
          <mxGeometry relative="1" as="geometry" />
        </mxCell>
        <mxCell id="tWL3oWKNITc_VHTO6xsC-158" style="edgeStyle=orthogonalEdgeStyle;rounded=0;orthogonalLoop=1;jettySize=auto;html=1;entryX=0;entryY=0.5;entryDx=0;entryDy=0;" edge="1" parent="WIyWlLk6GJQsqaUBKTNV-1" source="tWL3oWKNITc_VHTO6xsC-31">
          <mxGeometry relative="1" as="geometry">
            <mxPoint x="229.00000000000003" y="243.5" as="targetPoint" />
            <Array as="points">
              <mxPoint x="198.00000000000003" y="-133" />
              <mxPoint x="198.00000000000003" y="243" />
              <mxPoint x="230.00000000000003" y="243" />
            </Array>
          </mxGeometry>
        </mxCell>
        <mxCell id="tWL3oWKNITc_VHTO6xsC-176" style="edgeStyle=orthogonalEdgeStyle;rounded=0;orthogonalLoop=1;jettySize=auto;html=1;entryX=0;entryY=0.5;entryDx=0;entryDy=0;" edge="1" parent="WIyWlLk6GJQsqaUBKTNV-1" source="tWL3oWKNITc_VHTO6xsC-165" target="tWL3oWKNITc_VHTO6xsC-170">
          <mxGeometry relative="1" as="geometry" />
        </mxCell>
        <mxCell id="tWL3oWKNITc_VHTO6xsC-178" style="edgeStyle=orthogonalEdgeStyle;rounded=0;orthogonalLoop=1;jettySize=auto;html=1;entryX=0;entryY=0.5;entryDx=0;entryDy=0;" edge="1" parent="WIyWlLk6GJQsqaUBKTNV-1" source="tWL3oWKNITc_VHTO6xsC-165" target="tWL3oWKNITc_VHTO6xsC-66">
          <mxGeometry relative="1" as="geometry" />
        </mxCell>
        <mxCell id="tWL3oWKNITc_VHTO6xsC-165" value="&lt;p style=&quot;margin:0px;margin-top:4px;text-align:center;&quot;&gt;&lt;i&gt;&amp;lt;&amp;lt;Interface&amp;gt;&amp;gt;&lt;/i&gt;&lt;br&gt;&lt;b&gt;IReservationService&lt;/b&gt;&lt;/p&gt;&lt;hr size=&quot;1&quot; style=&quot;border-style:solid;&quot;&gt;&lt;p style=&quot;margin:0px;margin-left:4px;&quot;&gt;&lt;/p&gt;&lt;p style=&quot;margin:0px;margin-left:4px;&quot;&gt;+ getReservation(Long) : Reservation&lt;/p&gt;&lt;p style=&quot;margin:0px;margin-left:4px;&quot;&gt;+ getAllReservation() : List&amp;lt;Reservation&amp;gt;&lt;/p&gt;&lt;p style=&quot;margin:0px;margin-left:4px;&quot;&gt;&lt;br&gt;&lt;/p&gt;" style="verticalAlign=top;align=left;overflow=fill;html=1;whiteSpace=wrap;" vertex="1" parent="WIyWlLk6GJQsqaUBKTNV-1">
          <mxGeometry x="-251" y="1034.5" width="229" height="76" as="geometry" />
        </mxCell>
        <mxCell id="tWL3oWKNITc_VHTO6xsC-166" style="edgeStyle=orthogonalEdgeStyle;rounded=0;orthogonalLoop=1;jettySize=auto;html=1;entryX=0.005;entryY=0.223;entryDx=0;entryDy=0;entryPerimeter=0;" edge="1" parent="WIyWlLk6GJQsqaUBKTNV-1" target="tWL3oWKNITc_VHTO6xsC-62">
          <mxGeometry relative="1" as="geometry">
            <mxPoint x="-781.0045454545457" y="1102.9999999999998" as="sourcePoint" />
          </mxGeometry>
        </mxCell>
        <mxCell id="tWL3oWKNITc_VHTO6xsC-174" style="edgeStyle=orthogonalEdgeStyle;rounded=0;orthogonalLoop=1;jettySize=auto;html=1;entryX=0;entryY=0.5;entryDx=0;entryDy=0;" edge="1" parent="WIyWlLk6GJQsqaUBKTNV-1" source="tWL3oWKNITc_VHTO6xsC-25" target="tWL3oWKNITc_VHTO6xsC-41">
          <mxGeometry relative="1" as="geometry" />
        </mxCell>
        <mxCell id="tWL3oWKNITc_VHTO6xsC-175" style="edgeStyle=orthogonalEdgeStyle;rounded=0;orthogonalLoop=1;jettySize=auto;html=1;entryX=0.352;entryY=1.014;entryDx=0;entryDy=0;entryPerimeter=0;" edge="1" parent="WIyWlLk6GJQsqaUBKTNV-1" source="tWL3oWKNITc_VHTO6xsC-89" target="tWL3oWKNITc_VHTO6xsC-41">
          <mxGeometry relative="1" as="geometry">
            <Array as="points">
              <mxPoint x="-102" y="802" />
              <mxPoint x="-102" y="802" />
            </Array>
          </mxGeometry>
        </mxCell>
        <mxCell id="tWL3oWKNITc_VHTO6xsC-180" style="edgeStyle=orthogonalEdgeStyle;rounded=0;orthogonalLoop=1;jettySize=auto;html=1;entryX=0.703;entryY=0.97;entryDx=0;entryDy=0;entryPerimeter=0;" edge="1" parent="WIyWlLk6GJQsqaUBKTNV-1" source="tWL3oWKNITc_VHTO6xsC-93" target="tWL3oWKNITc_VHTO6xsC-44">
          <mxGeometry relative="1" as="geometry">
            <Array as="points">
              <mxPoint x="161" y="817" />
              <mxPoint x="241" y="817" />
              <mxPoint x="241" y="323" />
              <mxPoint x="387" y="323" />
            </Array>
          </mxGeometry>
        </mxCell>
        <mxCell id="tWL3oWKNITc_VHTO6xsC-181" style="edgeStyle=orthogonalEdgeStyle;rounded=0;orthogonalLoop=1;jettySize=auto;html=1;entryX=0.83;entryY=-0.01;entryDx=0;entryDy=0;entryPerimeter=0;" edge="1" parent="WIyWlLk6GJQsqaUBKTNV-1" source="tWL3oWKNITc_VHTO6xsC-40" target="tWL3oWKNITc_VHTO6xsC-42">
          <mxGeometry relative="1" as="geometry" />
        </mxCell>
        <mxCell id="tWL3oWKNITc_VHTO6xsC-183" style="edgeStyle=orthogonalEdgeStyle;rounded=0;orthogonalLoop=1;jettySize=auto;html=1;entryX=0.974;entryY=0.081;entryDx=0;entryDy=0;entryPerimeter=0;" edge="1" parent="WIyWlLk6GJQsqaUBKTNV-1" source="tWL3oWKNITc_VHTO6xsC-34" target="tWL3oWKNITc_VHTO6xsC-43">
          <mxGeometry relative="1" as="geometry" />
        </mxCell>
        <mxCell id="tWL3oWKNITc_VHTO6xsC-190" style="edgeStyle=orthogonalEdgeStyle;rounded=0;orthogonalLoop=1;jettySize=auto;html=1;entryX=0;entryY=0.5;entryDx=0;entryDy=0;" edge="1" parent="WIyWlLk6GJQsqaUBKTNV-1" source="tWL3oWKNITc_VHTO6xsC-184" target="tWL3oWKNITc_VHTO6xsC-188">
          <mxGeometry relative="1" as="geometry" />
        </mxCell>
        <mxCell id="tWL3oWKNITc_VHTO6xsC-192" style="edgeStyle=orthogonalEdgeStyle;rounded=0;orthogonalLoop=1;jettySize=auto;html=1;entryX=0;entryY=0.5;entryDx=0;entryDy=0;" edge="1" parent="WIyWlLk6GJQsqaUBKTNV-1" source="tWL3oWKNITc_VHTO6xsC-184" target="tWL3oWKNITc_VHTO6xsC-70">
          <mxGeometry relative="1" as="geometry" />
        </mxCell>
        <mxCell id="tWL3oWKNITc_VHTO6xsC-184" value="&lt;p style=&quot;margin:0px;margin-top:4px;text-align:center;&quot;&gt;&lt;i&gt;&amp;lt;&amp;lt;Interface&amp;gt;&amp;gt;&lt;/i&gt;&lt;br&gt;&lt;b&gt;IOrderService&lt;/b&gt;&lt;/p&gt;&lt;hr size=&quot;1&quot; style=&quot;border-style:solid;&quot;&gt;&lt;p style=&quot;margin:0px;margin-left:4px;&quot;&gt;&lt;/p&gt;&lt;p style=&quot;margin:0px;margin-left:4px;&quot;&gt;+ getOrder(Long) : Order&lt;/p&gt;&lt;p style=&quot;margin:0px;margin-left:4px;&quot;&gt;+ getAllOrder() : List&amp;lt;Order&amp;gt;&lt;/p&gt;&lt;p style=&quot;margin:0px;margin-left:4px;&quot;&gt;&lt;br&gt;&lt;/p&gt;" style="verticalAlign=top;align=left;overflow=fill;html=1;whiteSpace=wrap;" vertex="1" parent="WIyWlLk6GJQsqaUBKTNV-1">
          <mxGeometry x="580" y="1063" width="229" height="76" as="geometry" />
        </mxCell>
        <mxCell id="tWL3oWKNITc_VHTO6xsC-204" style="edgeStyle=orthogonalEdgeStyle;rounded=0;orthogonalLoop=1;jettySize=auto;html=1;entryX=0;entryY=0.5;entryDx=0;entryDy=0;" edge="1" parent="WIyWlLk6GJQsqaUBKTNV-1" source="tWL3oWKNITc_VHTO6xsC-194" target="tWL3oWKNITc_VHTO6xsC-201">
          <mxGeometry relative="1" as="geometry" />
        </mxCell>
        <mxCell id="tWL3oWKNITc_VHTO6xsC-194" value="&lt;p style=&quot;margin:0px;margin-top:4px;text-align:center;&quot;&gt;&lt;i&gt;&amp;lt;&amp;lt;Interface&amp;gt;&amp;gt;&lt;/i&gt;&lt;br&gt;&lt;b&gt;IMenuService&lt;/b&gt;&lt;/p&gt;&lt;hr size=&quot;1&quot; style=&quot;border-style:solid;&quot;&gt;&lt;p style=&quot;margin:0px;margin-left:4px;&quot;&gt;&lt;/p&gt;&lt;p style=&quot;margin:0px;margin-left:4px;&quot;&gt;+ getMenu(Long) : Menu&lt;/p&gt;&lt;p style=&quot;margin:0px;margin-left:4px;&quot;&gt;+ getAllMenu() : List&amp;lt;Menu&amp;gt;&lt;/p&gt;&lt;p style=&quot;margin:0px;margin-left:4px;&quot;&gt;&lt;br&gt;&lt;/p&gt;" style="verticalAlign=top;align=left;overflow=fill;html=1;whiteSpace=wrap;" vertex="1" parent="WIyWlLk6GJQsqaUBKTNV-1">
          <mxGeometry x="1159" y="1045" width="229" height="76" as="geometry" />
        </mxCell>
        <mxCell id="tWL3oWKNITc_VHTO6xsC-197" style="edgeStyle=orthogonalEdgeStyle;rounded=0;orthogonalLoop=1;jettySize=auto;html=1;entryX=-0.019;entryY=0.14;entryDx=0;entryDy=0;entryPerimeter=0;" edge="1" parent="WIyWlLk6GJQsqaUBKTNV-1" source="tWL3oWKNITc_VHTO6xsC-194" target="tWL3oWKNITc_VHTO6xsC-74">
          <mxGeometry relative="1" as="geometry" />
        </mxCell>
        <mxCell id="tWL3oWKNITc_VHTO6xsC-206" style="edgeStyle=orthogonalEdgeStyle;rounded=0;orthogonalLoop=1;jettySize=auto;html=1;entryX=0;entryY=0.5;entryDx=0;entryDy=0;" edge="1" parent="WIyWlLk6GJQsqaUBKTNV-1" source="tWL3oWKNITc_VHTO6xsC-1" target="tWL3oWKNITc_VHTO6xsC-17">
          <mxGeometry relative="1" as="geometry" />
        </mxCell>
        <mxCell id="tWL3oWKNITc_VHTO6xsC-210" style="edgeStyle=orthogonalEdgeStyle;rounded=0;orthogonalLoop=1;jettySize=auto;html=1;" edge="1" parent="WIyWlLk6GJQsqaUBKTNV-1" source="tWL3oWKNITc_VHTO6xsC-207" target="tWL3oWKNITc_VHTO6xsC-89">
          <mxGeometry relative="1" as="geometry" />
        </mxCell>
        <mxCell id="tWL3oWKNITc_VHTO6xsC-207" value="&lt;p style=&quot;margin:0px;margin-top:4px;text-align:center;&quot;&gt;&lt;i&gt;&amp;lt;&amp;lt;Interface&amp;gt;&amp;gt;&lt;/i&gt;&lt;br&gt;&lt;b&gt;IObserver&lt;/b&gt;&lt;/p&gt;&lt;hr size=&quot;1&quot; style=&quot;border-style:solid;&quot;&gt;&lt;p style=&quot;margin:0px;margin-left:4px;&quot;&gt;+ update: void&lt;br&gt;&lt;/p&gt;" style="verticalAlign=top;align=left;overflow=fill;html=1;whiteSpace=wrap;" vertex="1" parent="WIyWlLk6GJQsqaUBKTNV-1">
          <mxGeometry x="554" y="745" width="190" height="67" as="geometry" />
        </mxCell>
        <mxCell id="tWL3oWKNITc_VHTO6xsC-209" value="&lt;p style=&quot;margin:0px;margin-top:4px;text-align:center;&quot;&gt;&lt;i&gt;&amp;lt;&amp;lt;Interface&amp;gt;&amp;gt;&lt;/i&gt;&lt;br&gt;&lt;b&gt;IObservable&lt;/b&gt;&lt;/p&gt;&lt;hr size=&quot;1&quot; style=&quot;border-style:solid;&quot;&gt;&lt;p style=&quot;margin:0px;margin-left:4px;&quot;&gt;- observers: List&amp;lt;IObserver&amp;gt;&lt;/p&gt;&lt;p style=&quot;margin:0px;margin-left:4px;&quot;&gt;+ addObserver: void&lt;br&gt;&lt;/p&gt;&lt;p style=&quot;margin:0px;margin-left:4px;&quot;&gt;+ removeObserver: void&lt;/p&gt;&lt;p style=&quot;margin:0px;margin-left:4px;&quot;&gt;+ notifyObserver: void&lt;/p&gt;" style="verticalAlign=top;align=left;overflow=fill;html=1;whiteSpace=wrap;" vertex="1" parent="WIyWlLk6GJQsqaUBKTNV-1">
          <mxGeometry x="554" y="820" width="185" height="104" as="geometry" />
        </mxCell>
        <mxCell id="tWL3oWKNITc_VHTO6xsC-211" style="edgeStyle=orthogonalEdgeStyle;rounded=0;orthogonalLoop=1;jettySize=auto;html=1;entryX=0.011;entryY=0.056;entryDx=0;entryDy=0;entryPerimeter=0;" edge="1" parent="WIyWlLk6GJQsqaUBKTNV-1" source="tWL3oWKNITc_VHTO6xsC-207" target="tWL3oWKNITc_VHTO6xsC-101">
          <mxGeometry relative="1" as="geometry" />
        </mxCell>
        <mxCell id="tWL3oWKNITc_VHTO6xsC-215" style="edgeStyle=orthogonalEdgeStyle;rounded=0;orthogonalLoop=1;jettySize=auto;html=1;entryX=0.452;entryY=0.004;entryDx=0;entryDy=0;entryPerimeter=0;" edge="1" parent="WIyWlLk6GJQsqaUBKTNV-1" source="tWL3oWKNITc_VHTO6xsC-209" target="tWL3oWKNITc_VHTO6xsC-97">
          <mxGeometry relative="1" as="geometry" />
        </mxCell>
        <mxCell id="tWL3oWKNITc_VHTO6xsC-237" style="edgeStyle=orthogonalEdgeStyle;rounded=0;orthogonalLoop=1;jettySize=auto;html=1;entryX=0;entryY=0.5;entryDx=0;entryDy=0;" edge="1" parent="WIyWlLk6GJQsqaUBKTNV-1" source="tWL3oWKNITc_VHTO6xsC-223" target="tWL3oWKNITc_VHTO6xsC-232">
          <mxGeometry relative="1" as="geometry" />
        </mxCell>
        <mxCell id="tWL3oWKNITc_VHTO6xsC-272" style="edgeStyle=orthogonalEdgeStyle;rounded=0;orthogonalLoop=1;jettySize=auto;html=1;entryX=0;entryY=0.5;entryDx=0;entryDy=0;" edge="1" parent="WIyWlLk6GJQsqaUBKTNV-1" source="tWL3oWKNITc_VHTO6xsC-223" target="tWL3oWKNITc_VHTO6xsC-257">
          <mxGeometry relative="1" as="geometry" />
        </mxCell>
        <mxCell id="tWL3oWKNITc_VHTO6xsC-223" value="&lt;p style=&quot;margin:0px;margin-top:4px;text-align:center;&quot;&gt;&lt;i&gt;&amp;lt;&amp;lt;Interface&amp;gt;&amp;gt;&lt;/i&gt;&lt;br&gt;&lt;b&gt;IOrderHandler&lt;/b&gt;&lt;/p&gt;&lt;hr size=&quot;1&quot; style=&quot;border-style:solid;&quot;&gt;&lt;p style=&quot;margin:0px;margin-left:4px;&quot;&gt;+ setNextHandler (OrderHandler): void&lt;br&gt;&lt;/p&gt;&lt;p style=&quot;margin:0px;margin-left:4px;&quot;&gt;+ Handle (Order) :void&lt;/p&gt;" style="verticalAlign=top;align=left;overflow=fill;html=1;whiteSpace=wrap;" vertex="1" parent="WIyWlLk6GJQsqaUBKTNV-1">
          <mxGeometry x="397" y="604.5" width="213" height="81" as="geometry" />
        </mxCell>
        <mxCell id="tWL3oWKNITc_VHTO6xsC-239" value="&lt;div&gt;DiscountHandler extends OrderHandler&lt;/div&gt;" style="swimlane;fontStyle=1;align=center;verticalAlign=top;childLayout=stackLayout;horizontal=1;startSize=26;horizontalStack=0;resizeParent=1;resizeParentMax=0;resizeLast=0;collapsible=1;marginBottom=0;whiteSpace=wrap;html=1;" vertex="1" parent="WIyWlLk6GJQsqaUBKTNV-1">
          <mxGeometry x="574" y="394" width="245" height="52" as="geometry" />
        </mxCell>
        <mxCell id="tWL3oWKNITc_VHTO6xsC-244" value="+ handle(Order): void" style="text;strokeColor=none;fillColor=none;align=left;verticalAlign=top;spacingLeft=4;spacingRight=4;overflow=hidden;rotatable=0;points=[[0,0.5],[1,0.5]];portConstraint=eastwest;whiteSpace=wrap;html=1;" vertex="1" parent="tWL3oWKNITc_VHTO6xsC-239">
          <mxGeometry y="26" width="245" height="26" as="geometry" />
        </mxCell>
        <mxCell id="tWL3oWKNITc_VHTO6xsC-245" value="&lt;div&gt;PopularDishHandler extends OrderHandler&lt;/div&gt;" style="swimlane;fontStyle=1;align=center;verticalAlign=top;childLayout=stackLayout;horizontal=1;startSize=26;horizontalStack=0;resizeParent=1;resizeParentMax=0;resizeLast=0;collapsible=1;marginBottom=0;whiteSpace=wrap;html=1;" vertex="1" parent="WIyWlLk6GJQsqaUBKTNV-1">
          <mxGeometry x="845" y="472" width="250.5" height="52" as="geometry" />
        </mxCell>
        <mxCell id="tWL3oWKNITc_VHTO6xsC-250" value="+ handle(Order): void" style="text;strokeColor=none;fillColor=none;align=left;verticalAlign=top;spacingLeft=4;spacingRight=4;overflow=hidden;rotatable=0;points=[[0,0.5],[1,0.5]];portConstraint=eastwest;whiteSpace=wrap;html=1;" vertex="1" parent="tWL3oWKNITc_VHTO6xsC-245">
          <mxGeometry y="26" width="250.5" height="26" as="geometry" />
        </mxCell>
        <mxCell id="tWL3oWKNITc_VHTO6xsC-251" value="&lt;div&gt;FrecuentCustomerHandler extends OrderHandler&lt;/div&gt;" style="swimlane;fontStyle=1;align=center;verticalAlign=top;childLayout=stackLayout;horizontal=1;startSize=26;horizontalStack=0;resizeParent=1;resizeParentMax=0;resizeLast=0;collapsible=1;marginBottom=0;whiteSpace=wrap;html=1;" vertex="1" parent="WIyWlLk6GJQsqaUBKTNV-1">
          <mxGeometry x="408" y="510" width="291" height="52" as="geometry" />
        </mxCell>
        <mxCell id="tWL3oWKNITc_VHTO6xsC-252" value="+ handle(Order): void" style="text;strokeColor=none;fillColor=none;align=left;verticalAlign=top;spacingLeft=4;spacingRight=4;overflow=hidden;rotatable=0;points=[[0,0.5],[1,0.5]];portConstraint=eastwest;whiteSpace=wrap;html=1;" vertex="1" parent="tWL3oWKNITc_VHTO6xsC-251">
          <mxGeometry y="26" width="291" height="26" as="geometry" />
        </mxCell>
        <mxCell id="tWL3oWKNITc_VHTO6xsC-275" style="edgeStyle=orthogonalEdgeStyle;rounded=0;orthogonalLoop=1;jettySize=auto;html=1;entryX=1;entryY=0.25;entryDx=0;entryDy=0;" edge="1" parent="WIyWlLk6GJQsqaUBKTNV-1" source="tWL3oWKNITc_VHTO6xsC-257" target="tWL3oWKNITc_VHTO6xsC-251">
          <mxGeometry relative="1" as="geometry" />
        </mxCell>
        <mxCell id="tWL3oWKNITc_VHTO6xsC-257" value="OrderHandler abstract implement IOrderHandler" style="swimlane;fontStyle=1;align=center;verticalAlign=top;childLayout=stackLayout;horizontal=1;startSize=26;horizontalStack=0;resizeParent=1;resizeParentMax=0;resizeLast=0;collapsible=1;marginBottom=0;whiteSpace=wrap;html=1;" vertex="1" parent="WIyWlLk6GJQsqaUBKTNV-1">
          <mxGeometry x="658" y="589" width="319" height="112" as="geometry" />
        </mxCell>
        <mxCell id="tWL3oWKNITc_VHTO6xsC-258" value="+ nextHandler : OrderHandler" style="text;strokeColor=none;fillColor=none;align=left;verticalAlign=top;spacingLeft=4;spacingRight=4;overflow=hidden;rotatable=0;points=[[0,0.5],[1,0.5]];portConstraint=eastwest;whiteSpace=wrap;html=1;" vertex="1" parent="tWL3oWKNITc_VHTO6xsC-257">
          <mxGeometry y="26" width="319" height="26" as="geometry" />
        </mxCell>
        <mxCell id="tWL3oWKNITc_VHTO6xsC-259" value="" style="line;strokeWidth=1;fillColor=none;align=left;verticalAlign=middle;spacingTop=-1;spacingLeft=3;spacingRight=3;rotatable=0;labelPosition=right;points=[];portConstraint=eastwest;strokeColor=inherit;" vertex="1" parent="tWL3oWKNITc_VHTO6xsC-257">
          <mxGeometry y="52" width="319" height="8" as="geometry" />
        </mxCell>
        <mxCell id="tWL3oWKNITc_VHTO6xsC-260" value="+ setNextHandler(OrderHandler): void" style="text;strokeColor=none;fillColor=none;align=left;verticalAlign=top;spacingLeft=4;spacingRight=4;overflow=hidden;rotatable=0;points=[[0,0.5],[1,0.5]];portConstraint=eastwest;whiteSpace=wrap;html=1;" vertex="1" parent="tWL3oWKNITc_VHTO6xsC-257">
          <mxGeometry y="60" width="319" height="26" as="geometry" />
        </mxCell>
        <mxCell id="tWL3oWKNITc_VHTO6xsC-261" value="+ handle (Order void)" style="text;strokeColor=none;fillColor=none;align=left;verticalAlign=top;spacingLeft=4;spacingRight=4;overflow=hidden;rotatable=0;points=[[0,0.5],[1,0.5]];portConstraint=eastwest;whiteSpace=wrap;html=1;" vertex="1" parent="tWL3oWKNITc_VHTO6xsC-257">
          <mxGeometry y="86" width="319" height="26" as="geometry" />
        </mxCell>
        <mxCell id="tWL3oWKNITc_VHTO6xsC-269" style="edgeStyle=orthogonalEdgeStyle;rounded=0;orthogonalLoop=1;jettySize=auto;html=1;entryX=0.634;entryY=0.971;entryDx=0;entryDy=0;entryPerimeter=0;" edge="1" parent="WIyWlLk6GJQsqaUBKTNV-1" source="tWL3oWKNITc_VHTO6xsC-252" target="tWL3oWKNITc_VHTO6xsC-41">
          <mxGeometry relative="1" as="geometry" />
        </mxCell>
        <mxCell id="tWL3oWKNITc_VHTO6xsC-273" style="edgeStyle=orthogonalEdgeStyle;rounded=0;orthogonalLoop=1;jettySize=auto;html=1;entryX=0.284;entryY=0.967;entryDx=0;entryDy=0;entryPerimeter=0;" edge="1" parent="WIyWlLk6GJQsqaUBKTNV-1" source="tWL3oWKNITc_VHTO6xsC-245" target="tWL3oWKNITc_VHTO6xsC-43">
          <mxGeometry relative="1" as="geometry" />
        </mxCell>
        <mxCell id="tWL3oWKNITc_VHTO6xsC-274" style="edgeStyle=orthogonalEdgeStyle;rounded=0;orthogonalLoop=1;jettySize=auto;html=1;entryX=0.917;entryY=0.893;entryDx=0;entryDy=0;entryPerimeter=0;" edge="1" parent="WIyWlLk6GJQsqaUBKTNV-1" source="tWL3oWKNITc_VHTO6xsC-97" target="tWL3oWKNITc_VHTO6xsC-42">
          <mxGeometry relative="1" as="geometry">
            <Array as="points">
              <mxPoint x="1146" y="972" />
              <mxPoint x="1146" y="341" />
              <mxPoint x="1065" y="341" />
            </Array>
          </mxGeometry>
        </mxCell>
        <mxCell id="tWL3oWKNITc_VHTO6xsC-276" style="edgeStyle=orthogonalEdgeStyle;rounded=0;orthogonalLoop=1;jettySize=auto;html=1;entryX=0.137;entryY=1.04;entryDx=0;entryDy=0;entryPerimeter=0;" edge="1" parent="WIyWlLk6GJQsqaUBKTNV-1" source="tWL3oWKNITc_VHTO6xsC-257" target="tWL3oWKNITc_VHTO6xsC-250">
          <mxGeometry relative="1" as="geometry" />
        </mxCell>
        <mxCell id="tWL3oWKNITc_VHTO6xsC-277" style="edgeStyle=orthogonalEdgeStyle;rounded=0;orthogonalLoop=1;jettySize=auto;html=1;entryX=0.682;entryY=1.164;entryDx=0;entryDy=0;entryPerimeter=0;" edge="1" parent="WIyWlLk6GJQsqaUBKTNV-1" source="tWL3oWKNITc_VHTO6xsC-257" target="tWL3oWKNITc_VHTO6xsC-244">
          <mxGeometry relative="1" as="geometry">
            <Array as="points">
              <mxPoint x="818" y="517" />
              <mxPoint x="741" y="517" />
            </Array>
          </mxGeometry>
        </mxCell>
        <mxCell id="tWL3oWKNITc_VHTO6xsC-279" value="CustomerRequestDto" style="swimlane;fontStyle=1;align=center;verticalAlign=top;childLayout=stackLayout;horizontal=1;startSize=26;horizontalStack=0;resizeParent=1;resizeParentMax=0;resizeLast=0;collapsible=1;marginBottom=0;whiteSpace=wrap;html=1;" vertex="1" parent="WIyWlLk6GJQsqaUBKTNV-1">
          <mxGeometry x="-1229" y="1244" width="160" height="130" as="geometry" />
        </mxCell>
        <mxCell id="tWL3oWKNITc_VHTO6xsC-280" value="+ firstName: String" style="text;strokeColor=none;fillColor=none;align=left;verticalAlign=top;spacingLeft=4;spacingRight=4;overflow=hidden;rotatable=0;points=[[0,0.5],[1,0.5]];portConstraint=eastwest;whiteSpace=wrap;html=1;" vertex="1" parent="tWL3oWKNITc_VHTO6xsC-279">
          <mxGeometry y="26" width="160" height="26" as="geometry" />
        </mxCell>
        <mxCell id="tWL3oWKNITc_VHTO6xsC-289" value="+ lastName:String" style="text;strokeColor=none;fillColor=none;align=left;verticalAlign=top;spacingLeft=4;spacingRight=4;overflow=hidden;rotatable=0;points=[[0,0.5],[1,0.5]];portConstraint=eastwest;whiteSpace=wrap;html=1;" vertex="1" parent="tWL3oWKNITc_VHTO6xsC-279">
          <mxGeometry y="52" width="160" height="26" as="geometry" />
        </mxCell>
        <mxCell id="tWL3oWKNITc_VHTO6xsC-283" value="+ email: String" style="text;strokeColor=none;fillColor=none;align=left;verticalAlign=top;spacingLeft=4;spacingRight=4;overflow=hidden;rotatable=0;points=[[0,0.5],[1,0.5]];portConstraint=eastwest;whiteSpace=wrap;html=1;" vertex="1" parent="tWL3oWKNITc_VHTO6xsC-279">
          <mxGeometry y="78" width="160" height="26" as="geometry" />
        </mxCell>
        <mxCell id="tWL3oWKNITc_VHTO6xsC-288" value="+ phone: String" style="text;strokeColor=none;fillColor=none;align=left;verticalAlign=top;spacingLeft=4;spacingRight=4;overflow=hidden;rotatable=0;points=[[0,0.5],[1,0.5]];portConstraint=eastwest;whiteSpace=wrap;html=1;" vertex="1" parent="tWL3oWKNITc_VHTO6xsC-279">
          <mxGeometry y="104" width="160" height="26" as="geometry" />
        </mxCell>
        <mxCell id="tWL3oWKNITc_VHTO6xsC-284" value="CustomerResponseDto" style="swimlane;fontStyle=1;align=center;verticalAlign=top;childLayout=stackLayout;horizontal=1;startSize=26;horizontalStack=0;resizeParent=1;resizeParentMax=0;resizeLast=0;collapsible=1;marginBottom=0;whiteSpace=wrap;html=1;" vertex="1" parent="WIyWlLk6GJQsqaUBKTNV-1">
          <mxGeometry x="-1227" y="1409" width="160" height="182" as="geometry" />
        </mxCell>
        <mxCell id="tWL3oWKNITc_VHTO6xsC-293" value="+ phone: String" style="text;strokeColor=none;fillColor=none;align=left;verticalAlign=top;spacingLeft=4;spacingRight=4;overflow=hidden;rotatable=0;points=[[0,0.5],[1,0.5]];portConstraint=eastwest;whiteSpace=wrap;html=1;" vertex="1" parent="tWL3oWKNITc_VHTO6xsC-284">
          <mxGeometry y="26" width="160" height="26" as="geometry" />
        </mxCell>
        <mxCell id="tWL3oWKNITc_VHTO6xsC-290" value="+ id: Long" style="text;strokeColor=none;fillColor=none;align=left;verticalAlign=top;spacingLeft=4;spacingRight=4;overflow=hidden;rotatable=0;points=[[0,0.5],[1,0.5]];portConstraint=eastwest;whiteSpace=wrap;html=1;" vertex="1" parent="tWL3oWKNITc_VHTO6xsC-284">
          <mxGeometry y="52" width="160" height="26" as="geometry" />
        </mxCell>
        <mxCell id="tWL3oWKNITc_VHTO6xsC-291" value="+ isFrecuent: Boolean" style="text;strokeColor=none;fillColor=none;align=left;verticalAlign=top;spacingLeft=4;spacingRight=4;overflow=hidden;rotatable=0;points=[[0,0.5],[1,0.5]];portConstraint=eastwest;whiteSpace=wrap;html=1;" vertex="1" parent="tWL3oWKNITc_VHTO6xsC-284">
          <mxGeometry y="78" width="160" height="26" as="geometry" />
        </mxCell>
        <mxCell id="tWL3oWKNITc_VHTO6xsC-285" value="+ firstName: String" style="text;strokeColor=none;fillColor=none;align=left;verticalAlign=top;spacingLeft=4;spacingRight=4;overflow=hidden;rotatable=0;points=[[0,0.5],[1,0.5]];portConstraint=eastwest;whiteSpace=wrap;html=1;" vertex="1" parent="tWL3oWKNITc_VHTO6xsC-284">
          <mxGeometry y="104" width="160" height="26" as="geometry" />
        </mxCell>
        <mxCell id="tWL3oWKNITc_VHTO6xsC-292" value="+ lastName: String" style="text;strokeColor=none;fillColor=none;align=left;verticalAlign=top;spacingLeft=4;spacingRight=4;overflow=hidden;rotatable=0;points=[[0,0.5],[1,0.5]];portConstraint=eastwest;whiteSpace=wrap;html=1;" vertex="1" parent="tWL3oWKNITc_VHTO6xsC-284">
          <mxGeometry y="130" width="160" height="26" as="geometry" />
        </mxCell>
        <mxCell id="tWL3oWKNITc_VHTO6xsC-286" value="+ email: String" style="text;strokeColor=none;fillColor=none;align=left;verticalAlign=top;spacingLeft=4;spacingRight=4;overflow=hidden;rotatable=0;points=[[0,0.5],[1,0.5]];portConstraint=eastwest;whiteSpace=wrap;html=1;" vertex="1" parent="tWL3oWKNITc_VHTO6xsC-284">
          <mxGeometry y="156" width="160" height="26" as="geometry" />
        </mxCell>
        <mxCell id="tWL3oWKNITc_VHTO6xsC-294" value="ReservationRequestDto" style="swimlane;fontStyle=0;childLayout=stackLayout;horizontal=1;startSize=26;fillColor=none;horizontalStack=0;resizeParent=1;resizeParentMax=0;resizeLast=0;collapsible=1;marginBottom=0;whiteSpace=wrap;html=1;" vertex="1" parent="WIyWlLk6GJQsqaUBKTNV-1">
          <mxGeometry x="-353" y="1284" width="140" height="129" as="geometry" />
        </mxCell>
        <mxCell id="tWL3oWKNITc_VHTO6xsC-295" value="+ customerId: Long" style="text;strokeColor=none;fillColor=none;align=left;verticalAlign=top;spacingLeft=4;spacingRight=4;overflow=hidden;rotatable=0;points=[[0,0.5],[1,0.5]];portConstraint=eastwest;whiteSpace=wrap;html=1;" vertex="1" parent="tWL3oWKNITc_VHTO6xsC-294">
          <mxGeometry y="26" width="140" height="26" as="geometry" />
        </mxCell>
        <mxCell id="tWL3oWKNITc_VHTO6xsC-356" style="edgeStyle=orthogonalEdgeStyle;rounded=0;orthogonalLoop=1;jettySize=auto;html=1;" edge="1" parent="tWL3oWKNITc_VHTO6xsC-294" source="tWL3oWKNITc_VHTO6xsC-296">
          <mxGeometry relative="1" as="geometry">
            <mxPoint x="-43.33333333333326" y="384.6666666666665" as="targetPoint" />
          </mxGeometry>
        </mxCell>
        <mxCell id="tWL3oWKNITc_VHTO6xsC-296" value="+ time: LocalDateTime" style="text;strokeColor=none;fillColor=none;align=left;verticalAlign=top;spacingLeft=4;spacingRight=4;overflow=hidden;rotatable=0;points=[[0,0.5],[1,0.5]];portConstraint=eastwest;whiteSpace=wrap;html=1;" vertex="1" parent="tWL3oWKNITc_VHTO6xsC-294">
          <mxGeometry y="52" width="140" height="25" as="geometry" />
        </mxCell>
        <mxCell id="tWL3oWKNITc_VHTO6xsC-297" value="+ peolpe: Integer" style="text;strokeColor=none;fillColor=none;align=left;verticalAlign=top;spacingLeft=4;spacingRight=4;overflow=hidden;rotatable=0;points=[[0,0.5],[1,0.5]];portConstraint=eastwest;whiteSpace=wrap;html=1;" vertex="1" parent="tWL3oWKNITc_VHTO6xsC-294">
          <mxGeometry y="77" width="140" height="26" as="geometry" />
        </mxCell>
        <mxCell id="tWL3oWKNITc_VHTO6xsC-302" value="+ statur: String" style="text;strokeColor=none;fillColor=none;align=left;verticalAlign=top;spacingLeft=4;spacingRight=4;overflow=hidden;rotatable=0;points=[[0,0.5],[1,0.5]];portConstraint=eastwest;whiteSpace=wrap;html=1;" vertex="1" parent="tWL3oWKNITc_VHTO6xsC-294">
          <mxGeometry y="103" width="140" height="26" as="geometry" />
        </mxCell>
        <mxCell id="tWL3oWKNITc_VHTO6xsC-298" value="ReservationResponseDto" style="swimlane;fontStyle=0;childLayout=stackLayout;horizontal=1;startSize=26;fillColor=none;horizontalStack=0;resizeParent=1;resizeParentMax=0;resizeLast=0;collapsible=1;marginBottom=0;whiteSpace=wrap;html=1;" vertex="1" parent="WIyWlLk6GJQsqaUBKTNV-1">
          <mxGeometry x="-355" y="1473" width="140" height="156" as="geometry" />
        </mxCell>
        <mxCell id="tWL3oWKNITc_VHTO6xsC-299" value="+ id: Long" style="text;strokeColor=none;fillColor=none;align=left;verticalAlign=top;spacingLeft=4;spacingRight=4;overflow=hidden;rotatable=0;points=[[0,0.5],[1,0.5]];portConstraint=eastwest;whiteSpace=wrap;html=1;" vertex="1" parent="tWL3oWKNITc_VHTO6xsC-298">
          <mxGeometry y="26" width="140" height="26" as="geometry" />
        </mxCell>
        <mxCell id="tWL3oWKNITc_VHTO6xsC-300" value="+ customerId: Long" style="text;strokeColor=none;fillColor=none;align=left;verticalAlign=top;spacingLeft=4;spacingRight=4;overflow=hidden;rotatable=0;points=[[0,0.5],[1,0.5]];portConstraint=eastwest;whiteSpace=wrap;html=1;" vertex="1" parent="tWL3oWKNITc_VHTO6xsC-298">
          <mxGeometry y="52" width="140" height="26" as="geometry" />
        </mxCell>
        <mxCell id="tWL3oWKNITc_VHTO6xsC-301" value="+ time: LocalDateTime" style="text;strokeColor=none;fillColor=none;align=left;verticalAlign=top;spacingLeft=4;spacingRight=4;overflow=hidden;rotatable=0;points=[[0,0.5],[1,0.5]];portConstraint=eastwest;whiteSpace=wrap;html=1;" vertex="1" parent="tWL3oWKNITc_VHTO6xsC-298">
          <mxGeometry y="78" width="140" height="26" as="geometry" />
        </mxCell>
        <mxCell id="tWL3oWKNITc_VHTO6xsC-304" value="+ peopleL Integer" style="text;strokeColor=none;fillColor=none;align=left;verticalAlign=top;spacingLeft=4;spacingRight=4;overflow=hidden;rotatable=0;points=[[0,0.5],[1,0.5]];portConstraint=eastwest;whiteSpace=wrap;html=1;" vertex="1" parent="tWL3oWKNITc_VHTO6xsC-298">
          <mxGeometry y="104" width="140" height="26" as="geometry" />
        </mxCell>
        <mxCell id="tWL3oWKNITc_VHTO6xsC-303" value="+ status : String" style="text;strokeColor=none;fillColor=none;align=left;verticalAlign=top;spacingLeft=4;spacingRight=4;overflow=hidden;rotatable=0;points=[[0,0.5],[1,0.5]];portConstraint=eastwest;whiteSpace=wrap;html=1;" vertex="1" parent="tWL3oWKNITc_VHTO6xsC-298">
          <mxGeometry y="130" width="140" height="26" as="geometry" />
        </mxCell>
        <mxCell id="tWL3oWKNITc_VHTO6xsC-305" value="OrderRequestDto" style="swimlane;fontStyle=0;childLayout=stackLayout;horizontal=1;startSize=26;fillColor=none;horizontalStack=0;resizeParent=1;resizeParentMax=0;resizeLast=0;collapsible=1;marginBottom=0;whiteSpace=wrap;html=1;" vertex="1" parent="WIyWlLk6GJQsqaUBKTNV-1">
          <mxGeometry x="510" y="1294" width="140" height="104" as="geometry" />
        </mxCell>
        <mxCell id="tWL3oWKNITc_VHTO6xsC-306" value="+ reservationId: Long" style="text;strokeColor=none;fillColor=none;align=left;verticalAlign=top;spacingLeft=4;spacingRight=4;overflow=hidden;rotatable=0;points=[[0,0.5],[1,0.5]];portConstraint=eastwest;whiteSpace=wrap;html=1;" vertex="1" parent="tWL3oWKNITc_VHTO6xsC-305">
          <mxGeometry y="26" width="140" height="26" as="geometry" />
        </mxCell>
        <mxCell id="tWL3oWKNITc_VHTO6xsC-307" value="+ dishId: List&amp;lt;Long&amp;gt;" style="text;strokeColor=none;fillColor=none;align=left;verticalAlign=top;spacingLeft=4;spacingRight=4;overflow=hidden;rotatable=0;points=[[0,0.5],[1,0.5]];portConstraint=eastwest;whiteSpace=wrap;html=1;" vertex="1" parent="tWL3oWKNITc_VHTO6xsC-305">
          <mxGeometry y="52" width="140" height="26" as="geometry" />
        </mxCell>
        <mxCell id="tWL3oWKNITc_VHTO6xsC-308" value="+ status: String" style="text;strokeColor=none;fillColor=none;align=left;verticalAlign=top;spacingLeft=4;spacingRight=4;overflow=hidden;rotatable=0;points=[[0,0.5],[1,0.5]];portConstraint=eastwest;whiteSpace=wrap;html=1;" vertex="1" parent="tWL3oWKNITc_VHTO6xsC-305">
          <mxGeometry y="78" width="140" height="26" as="geometry" />
        </mxCell>
        <mxCell id="tWL3oWKNITc_VHTO6xsC-341" style="edgeStyle=orthogonalEdgeStyle;rounded=0;orthogonalLoop=1;jettySize=auto;html=1;entryX=0;entryY=0.5;entryDx=0;entryDy=0;" edge="1" parent="WIyWlLk6GJQsqaUBKTNV-1" source="tWL3oWKNITc_VHTO6xsC-309" target="tWL3oWKNITc_VHTO6xsC-219">
          <mxGeometry relative="1" as="geometry" />
        </mxCell>
        <mxCell id="tWL3oWKNITc_VHTO6xsC-309" value="OrderRespondeDto" style="swimlane;fontStyle=0;childLayout=stackLayout;horizontal=1;startSize=26;fillColor=none;horizontalStack=0;resizeParent=1;resizeParentMax=0;resizeLast=0;collapsible=1;marginBottom=0;whiteSpace=wrap;html=1;" vertex="1" parent="WIyWlLk6GJQsqaUBKTNV-1">
          <mxGeometry x="467" y="1472" width="202" height="130" as="geometry" />
        </mxCell>
        <mxCell id="tWL3oWKNITc_VHTO6xsC-310" value="+ id: Long" style="text;strokeColor=none;fillColor=none;align=left;verticalAlign=top;spacingLeft=4;spacingRight=4;overflow=hidden;rotatable=0;points=[[0,0.5],[1,0.5]];portConstraint=eastwest;whiteSpace=wrap;html=1;" vertex="1" parent="tWL3oWKNITc_VHTO6xsC-309">
          <mxGeometry y="26" width="202" height="26" as="geometry" />
        </mxCell>
        <mxCell id="tWL3oWKNITc_VHTO6xsC-311" value="+ ReservationId: Long" style="text;strokeColor=none;fillColor=none;align=left;verticalAlign=top;spacingLeft=4;spacingRight=4;overflow=hidden;rotatable=0;points=[[0,0.5],[1,0.5]];portConstraint=eastwest;whiteSpace=wrap;html=1;" vertex="1" parent="tWL3oWKNITc_VHTO6xsC-309">
          <mxGeometry y="52" width="202" height="26" as="geometry" />
        </mxCell>
        <mxCell id="tWL3oWKNITc_VHTO6xsC-312" value="+ dishes: List&amp;lt;DishRespondeDto&amp;gt;" style="text;strokeColor=none;fillColor=none;align=left;verticalAlign=top;spacingLeft=4;spacingRight=4;overflow=hidden;rotatable=0;points=[[0,0.5],[1,0.5]];portConstraint=eastwest;whiteSpace=wrap;html=1;" vertex="1" parent="tWL3oWKNITc_VHTO6xsC-309">
          <mxGeometry y="78" width="202" height="26" as="geometry" />
        </mxCell>
        <mxCell id="tWL3oWKNITc_VHTO6xsC-314" value="+ status: String" style="text;strokeColor=none;fillColor=none;align=left;verticalAlign=top;spacingLeft=4;spacingRight=4;overflow=hidden;rotatable=0;points=[[0,0.5],[1,0.5]];portConstraint=eastwest;whiteSpace=wrap;html=1;" vertex="1" parent="tWL3oWKNITc_VHTO6xsC-309">
          <mxGeometry y="104" width="202" height="26" as="geometry" />
        </mxCell>
        <mxCell id="tWL3oWKNITc_VHTO6xsC-315" value="MenuResponseDto" style="swimlane;fontStyle=0;childLayout=stackLayout;horizontal=1;startSize=26;fillColor=none;horizontalStack=0;resizeParent=1;resizeParentMax=0;resizeLast=0;collapsible=1;marginBottom=0;whiteSpace=wrap;html=1;" vertex="1" parent="WIyWlLk6GJQsqaUBKTNV-1">
          <mxGeometry x="1934" y="1547" width="193" height="104" as="geometry" />
        </mxCell>
        <mxCell id="tWL3oWKNITc_VHTO6xsC-316" value="+ id: Long" style="text;strokeColor=none;fillColor=none;align=left;verticalAlign=top;spacingLeft=4;spacingRight=4;overflow=hidden;rotatable=0;points=[[0,0.5],[1,0.5]];portConstraint=eastwest;whiteSpace=wrap;html=1;" vertex="1" parent="tWL3oWKNITc_VHTO6xsC-315">
          <mxGeometry y="26" width="193" height="26" as="geometry" />
        </mxCell>
        <mxCell id="tWL3oWKNITc_VHTO6xsC-317" value="+ name: String" style="text;strokeColor=none;fillColor=none;align=left;verticalAlign=top;spacingLeft=4;spacingRight=4;overflow=hidden;rotatable=0;points=[[0,0.5],[1,0.5]];portConstraint=eastwest;whiteSpace=wrap;html=1;" vertex="1" parent="tWL3oWKNITc_VHTO6xsC-315">
          <mxGeometry y="52" width="193" height="26" as="geometry" />
        </mxCell>
        <mxCell id="tWL3oWKNITc_VHTO6xsC-318" value="+ dishes: List&amp;lt;DishResponseDto&amp;gt;" style="text;strokeColor=none;fillColor=none;align=left;verticalAlign=top;spacingLeft=4;spacingRight=4;overflow=hidden;rotatable=0;points=[[0,0.5],[1,0.5]];portConstraint=eastwest;whiteSpace=wrap;html=1;" vertex="1" parent="tWL3oWKNITc_VHTO6xsC-315">
          <mxGeometry y="78" width="193" height="26" as="geometry" />
        </mxCell>
        <mxCell id="tWL3oWKNITc_VHTO6xsC-319" value="MenuRequestDto" style="swimlane;fontStyle=0;childLayout=stackLayout;horizontal=1;startSize=26;fillColor=none;horizontalStack=0;resizeParent=1;resizeParentMax=0;resizeLast=0;collapsible=1;marginBottom=0;whiteSpace=wrap;html=1;" vertex="1" parent="WIyWlLk6GJQsqaUBKTNV-1">
          <mxGeometry x="1965" y="1403" width="140" height="78" as="geometry" />
        </mxCell>
        <mxCell id="tWL3oWKNITc_VHTO6xsC-320" value="+ name: String" style="text;strokeColor=none;fillColor=none;align=left;verticalAlign=top;spacingLeft=4;spacingRight=4;overflow=hidden;rotatable=0;points=[[0,0.5],[1,0.5]];portConstraint=eastwest;whiteSpace=wrap;html=1;" vertex="1" parent="tWL3oWKNITc_VHTO6xsC-319">
          <mxGeometry y="26" width="140" height="26" as="geometry" />
        </mxCell>
        <mxCell id="tWL3oWKNITc_VHTO6xsC-321" value="+ dishIds: List&amp;lt;Long&amp;gt;" style="text;strokeColor=none;fillColor=none;align=left;verticalAlign=top;spacingLeft=4;spacingRight=4;overflow=hidden;rotatable=0;points=[[0,0.5],[1,0.5]];portConstraint=eastwest;whiteSpace=wrap;html=1;" vertex="1" parent="tWL3oWKNITc_VHTO6xsC-319">
          <mxGeometry y="52" width="140" height="26" as="geometry" />
        </mxCell>
        <mxCell id="tWL3oWKNITc_VHTO6xsC-323" value="DishResponseDto" style="swimlane;fontStyle=0;childLayout=stackLayout;horizontal=1;startSize=26;fillColor=none;horizontalStack=0;resizeParent=1;resizeParentMax=0;resizeLast=0;collapsible=1;marginBottom=0;whiteSpace=wrap;html=1;" vertex="1" parent="WIyWlLk6GJQsqaUBKTNV-1">
          <mxGeometry x="1250" y="1490" width="140" height="182" as="geometry" />
        </mxCell>
        <mxCell id="tWL3oWKNITc_VHTO6xsC-324" value="+ id: Long" style="text;strokeColor=none;fillColor=none;align=left;verticalAlign=top;spacingLeft=4;spacingRight=4;overflow=hidden;rotatable=0;points=[[0,0.5],[1,0.5]];portConstraint=eastwest;whiteSpace=wrap;html=1;" vertex="1" parent="tWL3oWKNITc_VHTO6xsC-323">
          <mxGeometry y="26" width="140" height="26" as="geometry" />
        </mxCell>
        <mxCell id="tWL3oWKNITc_VHTO6xsC-325" value="+ isPopular: Boolean" style="text;strokeColor=none;fillColor=none;align=left;verticalAlign=top;spacingLeft=4;spacingRight=4;overflow=hidden;rotatable=0;points=[[0,0.5],[1,0.5]];portConstraint=eastwest;whiteSpace=wrap;html=1;" vertex="1" parent="tWL3oWKNITc_VHTO6xsC-323">
          <mxGeometry y="52" width="140" height="26" as="geometry" />
        </mxCell>
        <mxCell id="tWL3oWKNITc_VHTO6xsC-326" value="+ isAvailable: Boolean" style="text;strokeColor=none;fillColor=none;align=left;verticalAlign=top;spacingLeft=4;spacingRight=4;overflow=hidden;rotatable=0;points=[[0,0.5],[1,0.5]];portConstraint=eastwest;whiteSpace=wrap;html=1;" vertex="1" parent="tWL3oWKNITc_VHTO6xsC-323">
          <mxGeometry y="78" width="140" height="26" as="geometry" />
        </mxCell>
        <mxCell id="tWL3oWKNITc_VHTO6xsC-334" value="+ name : String" style="text;strokeColor=none;fillColor=none;align=left;verticalAlign=top;spacingLeft=4;spacingRight=4;overflow=hidden;rotatable=0;points=[[0,0.5],[1,0.5]];portConstraint=eastwest;whiteSpace=wrap;html=1;" vertex="1" parent="tWL3oWKNITc_VHTO6xsC-323">
          <mxGeometry y="104" width="140" height="26" as="geometry" />
        </mxCell>
        <mxCell id="tWL3oWKNITc_VHTO6xsC-333" value="+ price : Double" style="text;strokeColor=none;fillColor=none;align=left;verticalAlign=top;spacingLeft=4;spacingRight=4;overflow=hidden;rotatable=0;points=[[0,0.5],[1,0.5]];portConstraint=eastwest;whiteSpace=wrap;html=1;" vertex="1" parent="tWL3oWKNITc_VHTO6xsC-323">
          <mxGeometry y="130" width="140" height="26" as="geometry" />
        </mxCell>
        <mxCell id="tWL3oWKNITc_VHTO6xsC-332" value="+ description: String" style="text;strokeColor=none;fillColor=none;align=left;verticalAlign=top;spacingLeft=4;spacingRight=4;overflow=hidden;rotatable=0;points=[[0,0.5],[1,0.5]];portConstraint=eastwest;whiteSpace=wrap;html=1;" vertex="1" parent="tWL3oWKNITc_VHTO6xsC-323">
          <mxGeometry y="156" width="140" height="26" as="geometry" />
        </mxCell>
        <mxCell id="tWL3oWKNITc_VHTO6xsC-327" value="DishRequestDto" style="swimlane;fontStyle=0;childLayout=stackLayout;horizontal=1;startSize=26;fillColor=none;horizontalStack=0;resizeParent=1;resizeParentMax=0;resizeLast=0;collapsible=1;marginBottom=0;whiteSpace=wrap;html=1;" vertex="1" parent="WIyWlLk6GJQsqaUBKTNV-1">
          <mxGeometry x="1250" y="1337" width="140" height="130" as="geometry" />
        </mxCell>
        <mxCell id="tWL3oWKNITc_VHTO6xsC-328" value="+ name: String" style="text;strokeColor=none;fillColor=none;align=left;verticalAlign=top;spacingLeft=4;spacingRight=4;overflow=hidden;rotatable=0;points=[[0,0.5],[1,0.5]];portConstraint=eastwest;whiteSpace=wrap;html=1;" vertex="1" parent="tWL3oWKNITc_VHTO6xsC-327">
          <mxGeometry y="26" width="140" height="26" as="geometry" />
        </mxCell>
        <mxCell id="tWL3oWKNITc_VHTO6xsC-329" value="+ price: Double" style="text;strokeColor=none;fillColor=none;align=left;verticalAlign=top;spacingLeft=4;spacingRight=4;overflow=hidden;rotatable=0;points=[[0,0.5],[1,0.5]];portConstraint=eastwest;whiteSpace=wrap;html=1;" vertex="1" parent="tWL3oWKNITc_VHTO6xsC-327">
          <mxGeometry y="52" width="140" height="26" as="geometry" />
        </mxCell>
        <mxCell id="tWL3oWKNITc_VHTO6xsC-388" style="edgeStyle=orthogonalEdgeStyle;rounded=0;orthogonalLoop=1;jettySize=auto;html=1;" edge="1" parent="tWL3oWKNITc_VHTO6xsC-327" source="tWL3oWKNITc_VHTO6xsC-330">
          <mxGeometry relative="1" as="geometry">
            <mxPoint x="211.3103448275865" y="91" as="targetPoint" />
          </mxGeometry>
        </mxCell>
        <mxCell id="tWL3oWKNITc_VHTO6xsC-330" value="+ description: String" style="text;strokeColor=none;fillColor=none;align=left;verticalAlign=top;spacingLeft=4;spacingRight=4;overflow=hidden;rotatable=0;points=[[0,0.5],[1,0.5]];portConstraint=eastwest;whiteSpace=wrap;html=1;" vertex="1" parent="tWL3oWKNITc_VHTO6xsC-327">
          <mxGeometry y="78" width="140" height="26" as="geometry" />
        </mxCell>
        <mxCell id="tWL3oWKNITc_VHTO6xsC-331" value="+ isAvailable : Boolean" style="text;strokeColor=none;fillColor=none;align=left;verticalAlign=top;spacingLeft=4;spacingRight=4;overflow=hidden;rotatable=0;points=[[0,0.5],[1,0.5]];portConstraint=eastwest;whiteSpace=wrap;html=1;" vertex="1" parent="tWL3oWKNITc_VHTO6xsC-327">
          <mxGeometry y="104" width="140" height="26" as="geometry" />
        </mxCell>
        <mxCell id="tWL3oWKNITc_VHTO6xsC-335" style="edgeStyle=orthogonalEdgeStyle;rounded=0;orthogonalLoop=1;jettySize=auto;html=1;entryX=0.035;entryY=-0.117;entryDx=0;entryDy=0;entryPerimeter=0;" edge="1" parent="WIyWlLk6GJQsqaUBKTNV-1" source="tWL3oWKNITc_VHTO6xsC-285" target="tWL3oWKNITc_VHTO6xsC-113">
          <mxGeometry relative="1" as="geometry" />
        </mxCell>
        <mxCell id="tWL3oWKNITc_VHTO6xsC-336" style="edgeStyle=orthogonalEdgeStyle;rounded=0;orthogonalLoop=1;jettySize=auto;html=1;entryX=0.004;entryY=0.117;entryDx=0;entryDy=0;entryPerimeter=0;" edge="1" parent="WIyWlLk6GJQsqaUBKTNV-1" source="tWL3oWKNITc_VHTO6xsC-283" target="tWL3oWKNITc_VHTO6xsC-110">
          <mxGeometry relative="1" as="geometry">
            <mxPoint x="-983" y="1439" as="targetPoint" />
            <Array as="points">
              <mxPoint x="-982" y="1335" />
              <mxPoint x="-982" y="1439" />
              <mxPoint x="-969" y="1439" />
            </Array>
          </mxGeometry>
        </mxCell>
        <mxCell id="tWL3oWKNITc_VHTO6xsC-342" style="edgeStyle=orthogonalEdgeStyle;rounded=0;orthogonalLoop=1;jettySize=auto;html=1;entryX=-0.007;entryY=0.85;entryDx=0;entryDy=0;entryPerimeter=0;" edge="1" parent="WIyWlLk6GJQsqaUBKTNV-1" source="tWL3oWKNITc_VHTO6xsC-308" target="tWL3oWKNITc_VHTO6xsC-220">
          <mxGeometry relative="1" as="geometry" />
        </mxCell>
        <mxCell id="tWL3oWKNITc_VHTO6xsC-348" value="CustomerDtoConverter" style="swimlane;fontStyle=0;childLayout=stackLayout;horizontal=1;startSize=26;fillColor=none;horizontalStack=0;resizeParent=1;resizeParentMax=0;resizeLast=0;collapsible=1;marginBottom=0;whiteSpace=wrap;html=1;" vertex="1" parent="WIyWlLk6GJQsqaUBKTNV-1">
          <mxGeometry x="-1229" y="1663" width="304" height="78" as="geometry" />
        </mxCell>
        <mxCell id="tWL3oWKNITc_VHTO6xsC-349" value="+ toCustomer: Customer" style="text;strokeColor=none;fillColor=none;align=left;verticalAlign=top;spacingLeft=4;spacingRight=4;overflow=hidden;rotatable=0;points=[[0,0.5],[1,0.5]];portConstraint=eastwest;whiteSpace=wrap;html=1;" vertex="1" parent="tWL3oWKNITc_VHTO6xsC-348">
          <mxGeometry y="26" width="304" height="26" as="geometry" />
        </mxCell>
        <mxCell id="tWL3oWKNITc_VHTO6xsC-350" value="+ toCustomerResponseDto: CustomerResponseDto" style="text;strokeColor=none;fillColor=none;align=left;verticalAlign=top;spacingLeft=4;spacingRight=4;overflow=hidden;rotatable=0;points=[[0,0.5],[1,0.5]];portConstraint=eastwest;whiteSpace=wrap;html=1;" vertex="1" parent="tWL3oWKNITc_VHTO6xsC-348">
          <mxGeometry y="52" width="304" height="26" as="geometry" />
        </mxCell>
        <mxCell id="tWL3oWKNITc_VHTO6xsC-353" value="ReservationDtoConverter" style="swimlane;fontStyle=0;childLayout=stackLayout;horizontal=1;startSize=26;fillColor=none;horizontalStack=0;resizeParent=1;resizeParentMax=0;resizeLast=0;collapsible=1;marginBottom=0;whiteSpace=wrap;html=1;" vertex="1" parent="WIyWlLk6GJQsqaUBKTNV-1">
          <mxGeometry x="-419" y="1668" width="343" height="78" as="geometry" />
        </mxCell>
        <mxCell id="tWL3oWKNITc_VHTO6xsC-354" value="+ toReservation: Reservation" style="text;strokeColor=none;fillColor=none;align=left;verticalAlign=top;spacingLeft=4;spacingRight=4;overflow=hidden;rotatable=0;points=[[0,0.5],[1,0.5]];portConstraint=eastwest;whiteSpace=wrap;html=1;" vertex="1" parent="tWL3oWKNITc_VHTO6xsC-353">
          <mxGeometry y="26" width="343" height="26" as="geometry" />
        </mxCell>
        <mxCell id="tWL3oWKNITc_VHTO6xsC-355" value="+ toReservationResponseDto: ReservationResponseDto" style="text;strokeColor=none;fillColor=none;align=left;verticalAlign=top;spacingLeft=4;spacingRight=4;overflow=hidden;rotatable=0;points=[[0,0.5],[1,0.5]];portConstraint=eastwest;whiteSpace=wrap;html=1;" vertex="1" parent="tWL3oWKNITc_VHTO6xsC-353">
          <mxGeometry y="52" width="343" height="26" as="geometry" />
        </mxCell>
        <mxCell id="tWL3oWKNITc_VHTO6xsC-358" style="edgeStyle=orthogonalEdgeStyle;rounded=0;orthogonalLoop=1;jettySize=auto;html=1;entryX=0.75;entryY=0;entryDx=0;entryDy=0;" edge="1" parent="WIyWlLk6GJQsqaUBKTNV-1" source="tWL3oWKNITc_VHTO6xsC-303">
          <mxGeometry relative="1" as="geometry">
            <mxPoint x="-189.75" y="1674" as="targetPoint" />
          </mxGeometry>
        </mxCell>
        <mxCell id="tWL3oWKNITc_VHTO6xsC-362" value="OrderDtoConverter" style="swimlane;fontStyle=0;childLayout=stackLayout;horizontal=1;startSize=26;fillColor=none;horizontalStack=0;resizeParent=1;resizeParentMax=0;resizeLast=0;collapsible=1;marginBottom=0;whiteSpace=wrap;html=1;" vertex="1" parent="WIyWlLk6GJQsqaUBKTNV-1">
          <mxGeometry x="420" y="1668" width="304" height="78" as="geometry" />
        </mxCell>
        <mxCell id="tWL3oWKNITc_VHTO6xsC-363" value="+ toOrder: Order" style="text;strokeColor=none;fillColor=none;align=left;verticalAlign=top;spacingLeft=4;spacingRight=4;overflow=hidden;rotatable=0;points=[[0,0.5],[1,0.5]];portConstraint=eastwest;whiteSpace=wrap;html=1;" vertex="1" parent="tWL3oWKNITc_VHTO6xsC-362">
          <mxGeometry y="26" width="304" height="26" as="geometry" />
        </mxCell>
        <mxCell id="tWL3oWKNITc_VHTO6xsC-364" value="+ toOrderResponseDto: OrderRespondeDto" style="text;strokeColor=none;fillColor=none;align=left;verticalAlign=top;spacingLeft=4;spacingRight=4;overflow=hidden;rotatable=0;points=[[0,0.5],[1,0.5]];portConstraint=eastwest;whiteSpace=wrap;html=1;" vertex="1" parent="tWL3oWKNITc_VHTO6xsC-362">
          <mxGeometry y="52" width="304" height="26" as="geometry" />
        </mxCell>
        <mxCell id="tWL3oWKNITc_VHTO6xsC-365" style="edgeStyle=orthogonalEdgeStyle;rounded=0;orthogonalLoop=1;jettySize=auto;html=1;entryX=0.889;entryY=0.017;entryDx=0;entryDy=0;entryPerimeter=0;" edge="1" parent="WIyWlLk6GJQsqaUBKTNV-1" source="tWL3oWKNITc_VHTO6xsC-314" target="tWL3oWKNITc_VHTO6xsC-362">
          <mxGeometry relative="1" as="geometry" />
        </mxCell>
        <mxCell id="tWL3oWKNITc_VHTO6xsC-366" style="edgeStyle=orthogonalEdgeStyle;rounded=0;orthogonalLoop=1;jettySize=auto;html=1;entryX=0.027;entryY=0.017;entryDx=0;entryDy=0;entryPerimeter=0;" edge="1" parent="WIyWlLk6GJQsqaUBKTNV-1" source="tWL3oWKNITc_VHTO6xsC-306" target="tWL3oWKNITc_VHTO6xsC-362">
          <mxGeometry relative="1" as="geometry" />
        </mxCell>
        <mxCell id="tWL3oWKNITc_VHTO6xsC-367" style="edgeStyle=orthogonalEdgeStyle;rounded=0;orthogonalLoop=1;jettySize=auto;html=1;entryX=0.076;entryY=0.974;entryDx=0;entryDy=0;entryPerimeter=0;" edge="1" parent="WIyWlLk6GJQsqaUBKTNV-1" source="tWL3oWKNITc_VHTO6xsC-362" target="tWL3oWKNITc_VHTO6xsC-217">
          <mxGeometry relative="1" as="geometry" />
        </mxCell>
        <mxCell id="tWL3oWKNITc_VHTO6xsC-368" value="DishDtoConverter" style="swimlane;fontStyle=0;childLayout=stackLayout;horizontal=1;startSize=26;fillColor=none;horizontalStack=0;resizeParent=1;resizeParentMax=0;resizeLast=0;collapsible=1;marginBottom=0;whiteSpace=wrap;html=1;" vertex="1" parent="WIyWlLk6GJQsqaUBKTNV-1">
          <mxGeometry x="1188" y="1718" width="304" height="78" as="geometry" />
        </mxCell>
        <mxCell id="tWL3oWKNITc_VHTO6xsC-369" value="+ toDish: Dish" style="text;strokeColor=none;fillColor=none;align=left;verticalAlign=top;spacingLeft=4;spacingRight=4;overflow=hidden;rotatable=0;points=[[0,0.5],[1,0.5]];portConstraint=eastwest;whiteSpace=wrap;html=1;" vertex="1" parent="tWL3oWKNITc_VHTO6xsC-368">
          <mxGeometry y="26" width="304" height="26" as="geometry" />
        </mxCell>
        <mxCell id="tWL3oWKNITc_VHTO6xsC-370" value="+ toDishResponseDto: DishRespondeDto" style="text;strokeColor=none;fillColor=none;align=left;verticalAlign=top;spacingLeft=4;spacingRight=4;overflow=hidden;rotatable=0;points=[[0,0.5],[1,0.5]];portConstraint=eastwest;whiteSpace=wrap;html=1;" vertex="1" parent="tWL3oWKNITc_VHTO6xsC-368">
          <mxGeometry y="52" width="304" height="26" as="geometry" />
        </mxCell>
        <mxCell id="tWL3oWKNITc_VHTO6xsC-371" style="edgeStyle=orthogonalEdgeStyle;rounded=0;orthogonalLoop=1;jettySize=auto;html=1;entryX=0.989;entryY=0.09;entryDx=0;entryDy=0;entryPerimeter=0;" edge="1" parent="WIyWlLk6GJQsqaUBKTNV-1" source="tWL3oWKNITc_VHTO6xsC-332">
          <mxGeometry relative="1" as="geometry">
            <mxPoint x="1454.656" y="1721.0199999999995" as="targetPoint" />
            <Array as="points">
              <mxPoint x="1452" y="1659" />
              <mxPoint x="1452" y="1697" />
              <mxPoint x="1455" y="1697" />
            </Array>
          </mxGeometry>
        </mxCell>
        <mxCell id="tWL3oWKNITc_VHTO6xsC-372" style="edgeStyle=orthogonalEdgeStyle;rounded=0;orthogonalLoop=1;jettySize=auto;html=1;entryX=0.25;entryY=0;entryDx=0;entryDy=0;" edge="1" parent="WIyWlLk6GJQsqaUBKTNV-1" source="tWL3oWKNITc_VHTO6xsC-328">
          <mxGeometry relative="1" as="geometry">
            <mxPoint x="1230.000000000001" y="1714" as="targetPoint" />
          </mxGeometry>
        </mxCell>
        <mxCell id="tWL3oWKNITc_VHTO6xsC-374" value="MenuDtoConverter" style="swimlane;fontStyle=0;childLayout=stackLayout;horizontal=1;startSize=26;fillColor=none;horizontalStack=0;resizeParent=1;resizeParentMax=0;resizeLast=0;collapsible=1;marginBottom=0;whiteSpace=wrap;html=1;" vertex="1" parent="WIyWlLk6GJQsqaUBKTNV-1">
          <mxGeometry x="1891" y="1712" width="304" height="78" as="geometry" />
        </mxCell>
        <mxCell id="tWL3oWKNITc_VHTO6xsC-375" value="+ toMenu: Menu" style="text;strokeColor=none;fillColor=none;align=left;verticalAlign=top;spacingLeft=4;spacingRight=4;overflow=hidden;rotatable=0;points=[[0,0.5],[1,0.5]];portConstraint=eastwest;whiteSpace=wrap;html=1;" vertex="1" parent="tWL3oWKNITc_VHTO6xsC-374">
          <mxGeometry y="26" width="304" height="26" as="geometry" />
        </mxCell>
        <mxCell id="tWL3oWKNITc_VHTO6xsC-376" value="+ toMenuResponseDto: MenuRespondeDto" style="text;strokeColor=none;fillColor=none;align=left;verticalAlign=top;spacingLeft=4;spacingRight=4;overflow=hidden;rotatable=0;points=[[0,0.5],[1,0.5]];portConstraint=eastwest;whiteSpace=wrap;html=1;" vertex="1" parent="tWL3oWKNITc_VHTO6xsC-374">
          <mxGeometry y="52" width="304" height="26" as="geometry" />
        </mxCell>
        <mxCell id="tWL3oWKNITc_VHTO6xsC-377" style="edgeStyle=orthogonalEdgeStyle;rounded=0;orthogonalLoop=1;jettySize=auto;html=1;entryX=0.054;entryY=-0.038;entryDx=0;entryDy=0;entryPerimeter=0;" edge="1" parent="WIyWlLk6GJQsqaUBKTNV-1" source="tWL3oWKNITc_VHTO6xsC-317" target="tWL3oWKNITc_VHTO6xsC-374">
          <mxGeometry relative="1" as="geometry">
            <Array as="points">
              <mxPoint x="1905" y="1612" />
              <mxPoint x="1905" y="1669" />
              <mxPoint x="1907" y="1669" />
            </Array>
          </mxGeometry>
        </mxCell>
        <mxCell id="tWL3oWKNITc_VHTO6xsC-378" style="edgeStyle=orthogonalEdgeStyle;rounded=0;orthogonalLoop=1;jettySize=auto;html=1;entryX=0.999;entryY=0.115;entryDx=0;entryDy=0;entryPerimeter=0;" edge="1" parent="WIyWlLk6GJQsqaUBKTNV-1" source="tWL3oWKNITc_VHTO6xsC-321" target="tWL3oWKNITc_VHTO6xsC-374">
          <mxGeometry relative="1" as="geometry" />
        </mxCell>
        <mxCell id="tWL3oWKNITc_VHTO6xsC-380" style="edgeStyle=orthogonalEdgeStyle;rounded=0;orthogonalLoop=1;jettySize=auto;html=1;entryX=0.847;entryY=-0.04;entryDx=0;entryDy=0;entryPerimeter=0;" edge="1" parent="WIyWlLk6GJQsqaUBKTNV-1" source="tWL3oWKNITc_VHTO6xsC-292" target="tWL3oWKNITc_VHTO6xsC-348">
          <mxGeometry relative="1" as="geometry">
            <Array as="points">
              <mxPoint x="-1066" y="1552" />
              <mxPoint x="-1066" y="1587" />
              <mxPoint x="-971" y="1587" />
            </Array>
          </mxGeometry>
        </mxCell>
        <mxCell id="tWL3oWKNITc_VHTO6xsC-381" style="edgeStyle=orthogonalEdgeStyle;rounded=0;orthogonalLoop=1;jettySize=auto;html=1;entryX=0.006;entryY=0.875;entryDx=0;entryDy=0;entryPerimeter=0;" edge="1" parent="WIyWlLk6GJQsqaUBKTNV-1" source="tWL3oWKNITc_VHTO6xsC-289">
          <mxGeometry relative="1" as="geometry">
            <mxPoint x="-1237.1760000000002" y="1707.75" as="targetPoint" />
            <Array as="points">
              <mxPoint x="-1259" y="1309" />
              <mxPoint x="-1259" y="1708" />
            </Array>
          </mxGeometry>
        </mxCell>
        <mxCell id="tWL3oWKNITc_VHTO6xsC-382" style="edgeStyle=orthogonalEdgeStyle;rounded=0;orthogonalLoop=1;jettySize=auto;html=1;entryX=0.517;entryY=0.991;entryDx=0;entryDy=0;entryPerimeter=0;" edge="1" parent="WIyWlLk6GJQsqaUBKTNV-1" source="tWL3oWKNITc_VHTO6xsC-348" target="tWL3oWKNITc_VHTO6xsC-113">
          <mxGeometry relative="1" as="geometry">
            <Array as="points">
              <mxPoint x="-535" y="1609" />
              <mxPoint x="-257" y="1609" />
            </Array>
          </mxGeometry>
        </mxCell>
        <mxCell id="tWL3oWKNITc_VHTO6xsC-389" style="edgeStyle=orthogonalEdgeStyle;rounded=0;orthogonalLoop=1;jettySize=auto;html=1;entryX=-0.006;entryY=-0.155;entryDx=0;entryDy=0;entryPerimeter=0;" edge="1" parent="WIyWlLk6GJQsqaUBKTNV-1" source="tWL3oWKNITc_VHTO6xsC-325" target="tWL3oWKNITc_VHTO6xsC-384">
          <mxGeometry relative="1" as="geometry" />
        </mxCell>
        <mxCell id="tWL3oWKNITc_VHTO6xsC-390" style="edgeStyle=orthogonalEdgeStyle;rounded=0;orthogonalLoop=1;jettySize=auto;html=1;entryX=0.154;entryY=1.038;entryDx=0;entryDy=0;entryPerimeter=0;" edge="1" parent="WIyWlLk6GJQsqaUBKTNV-1" source="tWL3oWKNITc_VHTO6xsC-369" target="tWL3oWKNITc_VHTO6xsC-384">
          <mxGeometry relative="1" as="geometry" />
        </mxCell>
        <mxCell id="tWL3oWKNITc_VHTO6xsC-391" style="edgeStyle=orthogonalEdgeStyle;rounded=0;orthogonalLoop=1;jettySize=auto;html=1;entryX=0.674;entryY=1.038;entryDx=0;entryDy=0;entryPerimeter=0;" edge="1" parent="WIyWlLk6GJQsqaUBKTNV-1" source="tWL3oWKNITc_VHTO6xsC-376" target="tWL3oWKNITc_VHTO6xsC-384">
          <mxGeometry relative="1" as="geometry" />
        </mxCell>
        <mxCell id="tWL3oWKNITc_VHTO6xsC-392" style="edgeStyle=orthogonalEdgeStyle;rounded=0;orthogonalLoop=1;jettySize=auto;html=1;entryX=0.997;entryY=0.908;entryDx=0;entryDy=0;entryPerimeter=0;" edge="1" parent="WIyWlLk6GJQsqaUBKTNV-1" source="tWL3oWKNITc_VHTO6xsC-320" target="tWL3oWKNITc_VHTO6xsC-387">
          <mxGeometry relative="1" as="geometry" />
        </mxCell>
        <mxCell id="tWL3oWKNITc_VHTO6xsC-393" style="edgeStyle=orthogonalEdgeStyle;rounded=0;orthogonalLoop=1;jettySize=auto;html=1;entryX=0.887;entryY=1.038;entryDx=0;entryDy=0;entryPerimeter=0;" edge="1" parent="WIyWlLk6GJQsqaUBKTNV-1" source="tWL3oWKNITc_VHTO6xsC-316" target="tWL3oWKNITc_VHTO6xsC-384">
          <mxGeometry relative="1" as="geometry" />
        </mxCell>
        <mxCell id="tWL3oWKNITc_VHTO6xsC-395" style="edgeStyle=orthogonalEdgeStyle;rounded=0;orthogonalLoop=1;jettySize=auto;html=1;entryX=0.003;entryY=0.257;entryDx=0;entryDy=0;entryPerimeter=0;" edge="1" parent="WIyWlLk6GJQsqaUBKTNV-1" source="tWL3oWKNITc_VHTO6xsC-290" target="tWL3oWKNITc_VHTO6xsC-111">
          <mxGeometry relative="1" as="geometry" />
        </mxCell>
        <mxCell id="tWL3oWKNITc_VHTO6xsC-397" style="edgeStyle=orthogonalEdgeStyle;rounded=0;orthogonalLoop=1;jettySize=auto;html=1;entryX=0.432;entryY=1.08;entryDx=0;entryDy=0;entryPerimeter=0;exitX=0.631;exitY=-0.02;exitDx=0;exitDy=0;exitPerimeter=0;" edge="1" parent="WIyWlLk6GJQsqaUBKTNV-1" source="tWL3oWKNITc_VHTO6xsC-110" target="tWL3oWKNITc_VHTO6xsC-62">
          <mxGeometry relative="1" as="geometry">
            <Array as="points">
              <mxPoint x="-661" y="1248" />
              <mxPoint x="-555" y="1248" />
            </Array>
          </mxGeometry>
        </mxCell>
        <mxCell id="tWL3oWKNITc_VHTO6xsC-402" style="edgeStyle=orthogonalEdgeStyle;rounded=0;orthogonalLoop=1;jettySize=auto;html=1;" edge="1" parent="WIyWlLk6GJQsqaUBKTNV-1" source="tWL3oWKNITc_VHTO6xsC-296" target="tWL3oWKNITc_VHTO6xsC-117">
          <mxGeometry relative="1" as="geometry" />
        </mxCell>
        <mxCell id="tWL3oWKNITc_VHTO6xsC-403" style="edgeStyle=orthogonalEdgeStyle;rounded=0;orthogonalLoop=1;jettySize=auto;html=1;entryX=0.005;entryY=0.783;entryDx=0;entryDy=0;entryPerimeter=0;" edge="1" parent="WIyWlLk6GJQsqaUBKTNV-1" source="tWL3oWKNITc_VHTO6xsC-301" target="tWL3oWKNITc_VHTO6xsC-401">
          <mxGeometry relative="1" as="geometry" />
        </mxCell>
        <mxCell id="tWL3oWKNITc_VHTO6xsC-404" style="edgeStyle=orthogonalEdgeStyle;rounded=0;orthogonalLoop=1;jettySize=auto;html=1;entryX=0.223;entryY=1.025;entryDx=0;entryDy=0;entryPerimeter=0;" edge="1" parent="WIyWlLk6GJQsqaUBKTNV-1" source="tWL3oWKNITc_VHTO6xsC-353" target="tWL3oWKNITc_VHTO6xsC-398">
          <mxGeometry relative="1" as="geometry">
            <Array as="points">
              <mxPoint x="-105" y="1617" />
              <mxPoint x="-15" y="1617" />
            </Array>
          </mxGeometry>
        </mxCell>
      </root>
    </mxGraphModel>
  </diagram>
</mxfile>
